<?xml version="1.0" encoding="utf-8"?>
<!-- Generator: Adobe Illustrator 20.0.0, SVG Export Plug-In . SVG Version: 6.00 Build 0)  -->
<svg xmlns:xlink="http://www.w3.org/1999/xlink" version="1.1" id="Layer_1" xmlns="http://www.w3.org/2000/svg" x="0px"
     y="0px"
     viewBox="0 0 32 32" style="enable-background:new 0 0 32 32;" xml:space="preserve">
<title>JT2GO_Icons_32px_Art_cmdAlignToView32</title>
    <style type="text/css">
	.st0{fill:#ffffff;}
	.st1{fill:none;}
</style>

    <g>
	<g>
		<g>
			<path class="st0" d="M18.5,15h-17C1.2,15,1,14.8,1,14.5v-14C1,0.2,1.2,0,1.5,0h17C18.8,0,19,0.2,19,0.5v14
				C19,14.8,18.8,15,18.5,15z M2,14h16V1H2V14z"/>
		</g>
        <g>
			<path class="st0" d="M26.5,15c-0.1,0-0.3-0.1-0.4-0.1l-7-7C19.1,7.8,19,7.6,19,7.5s0.1-0.3,0.1-0.4l7-7C26.3,0,26.5,0,26.7,0
				C26.9,0.1,27,0.3,27,0.5v14c0,0.2-0.1,0.4-0.3,0.5C26.6,15,26.6,15,26.5,15z M20.2,7.5l5.8,5.8V1.7L20.2,7.5z"/>
		</g>
        <g>
			<rect x="14" y="23" class="st0" width="7" height="1"/>
		</g>
        <g>
			<rect x="24" y="23" class="st0" width="7" height="1"/>
		</g>
        <g>
			<rect x="22" y="25" class="st0" width="1" height="7"/>
		</g>
        <g>
			<rect x="22" y="15" class="st0" width="1" height="7"/>
		</g>
        <g>
			<polygon class="st0" points="18,21 17,21 17,18 20,18 20,19 18,19 			"/>
		</g>
        <g>
			<polygon class="st0" points="28,21 27,21 27,19 25,19 25,18 28,18 			"/>
		</g>
        <g>
			<polygon class="st0" points="28,29 25,29 25,28 27,28 27,26 28,26 			"/>
		</g>
        <g>
			<polygon class="st0" points="20,29 17,29 17,26 18,26 18,28 20,28 			"/>
		</g>
	</g>
        <g id="XMLID_125_">
		<rect y="0" class="st1" width="32" height="32"/>
	</g>
</g>
</svg>
