<?xml version="1.0" encoding="utf-8"?>
<!-- Generator: Adobe Illustrator 19.2.1, SVG Export Plug-In . SVG Version: 6.00 Build 0)  -->
<svg xmlns:xlink="http://www.w3.org/1999/xlink" version="1.1" id="Layer_1" xmlns="http://www.w3.org/2000/svg" x="0px"
     y="0px"
     viewBox="0 0 32 32" style="enable-background:new 0 0 32 32;" xml:space="preserve">
<style type="text/css">
	.st0{fill:#888888;}
	.st1{fill:#F2F2F2;}
	.st2{fill:#F1F1F1;}
	.st3{fill:#F0F0F0;}
	.st4{fill:#EFEFEF;}
	.st5{fill:#EEEEEE;}
	.st6{fill:#EDEDED;}
	.st7{fill:#ECECEC;}
	.st8{fill:#EBEBEB;}
	.st9{fill:#EAEAEA;}
	.st10{fill:#E9E9E9;}
	.st11{fill:#E8E8E8;}
	.st12{fill:#E7E7E7;}
	.st13{fill:#E6E6E6;}
	.st14{fill:#E5E5E5;}
	.st15{fill:#E4E4E4;}
	.st16{fill:#E3E3E3;}
	.st17{fill:#E2E2E2;}
	.st18{fill:#E1E1E1;}
	.st19{fill:#E0E0E0;}
	.st20{fill:#DEDEDE;}
	.st21{fill:#DDDDDD;}
	.st22{fill:#DCDCDC;}
	.st23{fill:#DBDBDB;}
	.st24{fill:#DADADA;}
	.st25{fill:#D9D9D9;}
	.st26{fill:#D8D8D8;}
	.st27{fill:#D7D7D7;}
	.st28{fill:#D6D6D6;}
	.st29{fill:#D5D5D5;}
	.st30{fill:#D4D4D4;}
	.st31{fill:#D3D3D3;}
	.st32{fill:#D2D2D2;}
	.st33{fill:#D1D1D1;}
	.st34{fill:#D0D0D0;}
	.st35{fill:#CFCFCF;}
	.st36{fill:#CECECE;}
	.st37{fill:#CDCDCD;}
	.st38{fill:#CCCCCC;}
	.st39{fill:#CBCBCB;}
	.st40{fill:#CACACA;}
	.st41{fill:#C9C9C9;}
	.st42{fill:#C8C8C8;}
	.st43{fill:#C7C7C7;}
	.st44{fill:#C6C6C6;}
	.st45{fill:#C5C5C5;}
	.st46{fill:#C4C4C4;}
	.st47{fill:#C3C3C3;}
	.st48{fill:#C2C2C2;}
	.st49{fill:#C1C1C1;}
	.st50{fill:#C0C0C0;}
	.st51{fill:#BFBFBF;}
	.st52{fill:#BEBEBE;}
	.st53{fill:#BDBDBD;}
	.st54{fill:#BCBCBC;}
	.st55{fill:#BBBBBB;}
	.st56{fill:#BABABA;}
	.st57{fill:#B9B9B9;}
	.st58{fill:#B7B7B7;}
	.st59{fill:#B6B6B6;}
	.st60{fill:#B5B5B5;}
	.st61{fill:#B4B4B4;}
	.st62{fill:#B2B2B2;}
	.st63{fill:#B1B1B1;}
	.st64{fill:#B0B0B0;}
	.st65{fill:#AEAEAE;}
	.st66{fill:#ADADAD;}
	.st67{fill:#ABABAB;}
	.st68{fill:#AAAAAA;}
	.st69{fill:#A8A8A8;}
	.st70{fill:#A7A7A7;}
	.st71{fill:#A5A5A5;}
	.st72{fill:#A3A3A3;}
	.st73{fill:#A2A2A2;}
	.st74{fill:#A0A0A0;}
	.st75{fill:#9E9E9E;}
	.st76{fill:#9D9D9D;}
	.st77{fill:#9B9B9B;}
	.st78{fill:#999999;}
	.st79{fill:#FFFFFF;}
	.st80{fill:#FEFEFE;}
	.st81{fill:#FDFDFD;}
	.st82{fill:#FCFCFC;}
	.st83{fill:#FBFBFB;}
	.st84{fill:#FAFAFA;}
	.st85{fill:#F9F9F9;}
	.st86{fill:#F8F8F8;}
	.st87{fill:#F7F7F7;}
	.st88{fill:#F6F6F6;}
	.st89{fill:#F5F5F5;}
	.st90{fill:#F4F4F4;}
	.st91{fill:#F3F3F3;}
	.st92{fill:#DFDFDF;}
	.st93{fill:#6E6E6E;}
	.st94{fill:#ffffff;}
	.st95{fill:none;}
</style>

    <g>
	<polygon class="st0" points="19.8,22.7 19.8,31.5 27.5,27.1 27.5,18.2 	"/>
        <g>
		<polygon class="st0" points="12.2,9.4 12.2,18.2 19.8,13.8 19.8,4.9 		"/>
	</g>
        <g>
		<polygon class="st1" points="12.2,18.2 12.3,18.3 12.6,17.9 		"/>
            <polygon class="st2" points="12.6,17.9 12.3,18.3 12.4,18.4 13.1,17.7 		"/>
            <polygon class="st3" points="13.1,17.7 12.4,18.4 12.5,18.4 13.6,17.4 		"/>
            <polygon class="st4" points="13.6,17.4 12.5,18.4 12.7,18.5 14.1,17.1 		"/>
            <polygon class="st5" points="14.1,17.1 12.7,18.5 12.8,18.6 14.6,16.8 		"/>
            <polygon class="st6" points="14.6,16.8 12.8,18.6 12.9,18.7 15,16.6 		"/>
            <polygon class="st7" points="15,16.6 12.9,18.7 13.1,18.7 15.5,16.3 		"/>
            <polygon class="st8" points="15.5,16.3 13.1,18.7 13.2,18.8 16,16 		"/>
            <polygon class="st9" points="16,16 13.2,18.8 13.3,18.9 16.5,15.7 		"/>
            <polygon class="st10" points="16.5,15.7 13.3,18.9 13.4,19 17,15.4 		"/>
            <polygon class="st11" points="17,15.4 13.4,19 13.6,19 17.4,15.2 		"/>
            <polygon class="st12" points="17.4,15.2 13.6,19 13.7,19.1 17.9,14.9 		"/>
            <polygon class="st13" points="17.9,14.9 13.7,19.1 13.8,19.2 18.4,14.6 		"/>
            <polygon class="st14" points="18.4,14.6 13.8,19.2 14,19.3 18.9,14.3 		"/>
            <polygon class="st15" points="18.9,14.3 14,19.3 14.1,19.3 19.4,14 		"/>
            <polygon class="st16" points="19.8,13.8 19.4,14 14.1,19.3 14.2,19.4 19.8,13.8 		"/>
            <polygon class="st17" points="19.8,13.8 14.2,19.4 14.3,19.5 20,13.9 		"/>
            <polygon class="st18" points="20,13.9 14.3,19.5 14.5,19.6 20.1,13.9 		"/>
            <polygon class="st19" points="20.1,13.9 14.5,19.6 14.6,19.6 20.2,14 		"/>
            <polygon class="st20" points="20.2,14 14.6,19.6 14.7,19.7 20.3,14.1 		"/>
            <polygon class="st21" points="20.3,14.1 14.7,19.7 14.8,19.8 20.5,14.2 		"/>
            <polygon class="st22" points="20.5,14.2 14.8,19.8 15,19.8 20.6,14.2 		"/>
            <polygon class="st23" points="20.6,14.2 15,19.8 15.1,19.9 20.7,14.3 		"/>
            <polygon class="st24" points="20.7,14.3 15.1,19.9 15.2,20 20.9,14.4 		"/>
            <polygon class="st25" points="20.9,14.4 15.2,20 15.4,20.1 21,14.4 		"/>
            <polygon class="st26" points="21,14.4 15.4,20.1 15.5,20.1 21.1,14.5 		"/>
            <polygon class="st27" points="21.1,14.5 15.5,20.1 15.6,20.2 21.2,14.6 		"/>
            <polygon class="st28" points="21.2,14.6 15.6,20.2 15.7,20.3 21.4,14.7 		"/>
            <polygon class="st29" points="21.4,14.7 15.7,20.3 15.9,20.4 21.5,14.7 		"/>
            <polygon class="st30" points="21.5,14.7 15.9,20.4 16,20.4 21.6,14.8 		"/>
            <polygon class="st31" points="21.6,14.8 16,20.4 16.1,20.5 21.8,14.9 		"/>
            <polygon class="st32" points="21.8,14.9 16.1,20.5 16.3,20.6 21.9,15 		"/>
            <polygon class="st33" points="21.9,15 16.3,20.6 16.4,20.7 22,15 		"/>
            <polygon class="st34" points="22,15 16.4,20.7 16.5,20.7 22.1,15.1 		"/>
            <polygon class="st35" points="22.1,15.1 16.5,20.7 16.6,20.8 22.3,15.2 		"/>
            <polygon class="st36" points="22.3,15.2 16.6,20.8 16.8,20.9 22.4,15.3 		"/>
            <polygon class="st37" points="22.4,15.3 16.8,20.9 16.9,21 22.5,15.3 		"/>
            <polygon class="st38" points="22.5,15.3 16.9,21 17,21 22.7,15.4 		"/>
            <polygon class="st38" points="22.7,15.4 17,21 17.1,21.1 22.7,15.5 		"/>
            <polygon class="st38" points="22.7,15.5 17.1,21.1 17.2,21.1 22.8,15.5 		"/>
            <polygon class="st38" points="22.8,15.5 17.2,21.1 17.3,21.2 22.9,15.6 		"/>
            <polygon class="st38" points="22.9,15.6 17.3,21.2 17.4,21.3 23,15.6 		"/>
            <polygon class="st39" points="23,15.6 17.4,21.3 17.5,21.3 23.1,15.7 		"/>
            <polygon class="st39" points="23.1,15.7 17.5,21.3 17.6,21.4 23.2,15.7 		"/>
            <polygon class="st39" points="23.2,15.7 17.6,21.4 17.7,21.4 23.3,15.8 		"/>
            <polygon class="st40" points="23.3,15.8 17.7,21.4 17.8,21.5 23.4,15.8 		"/>
            <polygon class="st40" points="23.4,15.8 17.8,21.5 17.9,21.5 23.5,15.9 		"/>
            <polygon class="st40" points="23.5,15.9 17.9,21.5 18,21.6 23.6,16 		"/>
            <polygon class="st41" points="23.6,16 18,21.6 18.1,21.6 23.7,16 		"/>
            <polygon class="st41" points="23.7,16 18.1,21.6 18.1,21.7 23.8,16.1 		"/>
            <polygon class="st42" points="23.8,16.1 18.1,21.7 18.2,21.7 23.9,16.1 		"/>
            <polygon class="st43" points="23.9,16.1 18.2,21.7 18.3,21.8 24,16.2 		"/>
            <polygon class="st43" points="24,16.2 18.3,21.8 18.4,21.8 24.1,16.2 		"/>
            <polygon class="st44" points="24.1,16.2 18.4,21.8 18.5,21.9 24.1,16.3 		"/>
            <polygon class="st45" points="24.1,16.3 18.5,21.9 18.6,22 24.2,16.3 		"/>
            <polygon class="st45" points="24.2,16.3 18.6,22 18.7,22 24.3,16.4 		"/>
            <polygon class="st46" points="24.3,16.4 18.7,22 18.8,22.1 24.4,16.4 		"/>
            <polygon class="st47" points="24.4,16.4 18.8,22.1 18.9,22.1 24.5,16.5 		"/>
            <polygon class="st48" points="24.5,16.5 18.9,22.1 19,22.2 24.6,16.5 		"/>
            <polygon class="st49" points="24.6,16.5 19,22.2 19.1,22.2 24.7,16.6 		"/>
            <polygon class="st50" points="24.7,16.6 19.1,22.2 19.2,22.3 24.8,16.7 		"/>
            <polygon class="st51" points="24.8,16.7 19.2,22.3 19.3,22.3 24.9,16.7 		"/>
            <polygon class="st52" points="24.9,16.7 19.3,22.3 19.4,22.4 25,16.8 		"/>
            <polygon class="st53" points="25,16.8 19.4,22.4 19.5,22.4 25.1,16.8 		"/>
            <polygon class="st54" points="25.1,16.8 19.5,22.4 19.6,22.5 25.2,16.9 		"/>
            <polygon class="st55" points="25.2,16.9 19.6,22.5 19.6,22.5 25.3,16.9 		"/>
            <polygon class="st56" points="25.3,16.9 19.6,22.5 19.7,22.6 25.4,17 		"/>
            <polygon class="st57" points="25.4,17 19.7,22.6 19.8,22.7 25.5,17 		"/>
            <polygon class="st58" points="25.5,17 19.8,22.7 19.8,22.7 20.2,22.5 25.5,17.1 		"/>
            <polygon class="st59" points="25.5,17.1 20.2,22.5 20.5,22.3 25.6,17.1 		"/>
            <polygon class="st60" points="25.6,17.1 20.5,22.3 20.9,22.1 25.7,17.2 		"/>
            <polygon class="st61" points="25.7,17.2 20.9,22.1 21.2,21.9 25.8,17.2 		"/>
            <polygon class="st62" points="25.8,17.2 21.2,21.9 21.6,21.7 25.9,17.3 		"/>
            <polygon class="st63" points="25.9,17.3 21.6,21.7 21.9,21.5 26,17.4 		"/>
            <polygon class="st64" points="26,17.4 21.9,21.5 22.3,21.3 26.1,17.4 		"/>
            <polygon class="st65" points="26.1,17.4 22.3,21.3 22.6,21.1 26.2,17.5 		"/>
            <polygon class="st66" points="26.2,17.5 22.6,21.1 23,20.9 26.3,17.5 		"/>
            <polygon class="st67" points="26.3,17.5 23,20.9 23.3,20.7 26.4,17.6 		"/>
            <polygon class="st68" points="26.4,17.6 23.3,20.7 23.7,20.5 26.5,17.6 		"/>
            <polygon class="st69" points="26.5,17.6 23.7,20.5 24,20.3 26.6,17.7 		"/>
            <polygon class="st70" points="26.6,17.7 24,20.3 24.4,20.1 26.7,17.7 		"/>
            <polygon class="st71" points="26.7,17.7 24.4,20.1 24.7,19.8 26.8,17.8 		"/>
            <polygon class="st72" points="26.8,17.8 24.7,19.8 25.1,19.6 26.9,17.8 		"/>
            <polygon class="st73" points="26.9,17.8 25.1,19.6 25.4,19.4 27,17.9 		"/>
            <polygon class="st74" points="27,17.9 25.4,19.4 25.8,19.2 27,17.9 		"/>
            <polygon class="st75" points="27,17.9 25.8,19.2 26.1,19 27.1,18 		"/>
            <polygon class="st76" points="27.1,18 26.1,19 26.5,18.8 27.2,18.1 		"/>
            <polygon class="st77" points="27.2,18.1 26.5,18.8 26.8,18.6 27.3,18.1 		"/>
            <polygon class="st78" points="27.3,18.1 26.8,18.6 27.2,18.4 27.4,18.2 		"/>
            <polygon class="st78" points="27.2,18.4 27.5,18.2 27.4,18.2 		"/>
	</g>
        <g>
		<polygon class="st1" points="4.5,4.9 4.5,5.5 4.8,5.1 		"/>
            <polygon class="st2" points="4.8,5.1 4.5,5.5 4.5,6 5.2,5.3 		"/>
            <polygon class="st3" points="5.2,5.3 4.5,6 4.5,6.6 5.5,5.5 		"/>
            <polygon class="st4" points="5.5,5.5 4.5,6.6 4.5,7.1 5.9,5.7 		"/>
            <polygon class="st5" points="5.9,5.7 4.5,7.1 4.5,7.7 6.2,6 		"/>
            <polygon class="st6" points="6.2,6 4.5,7.7 4.5,8.2 6.6,6.2 		"/>
            <polygon class="st7" points="6.6,6.2 4.5,8.2 4.5,8.8 6.9,6.4 		"/>
            <polygon class="st8" points="6.9,6.4 4.5,8.8 4.5,9.4 7.3,6.6 		"/>
            <polygon class="st9" points="7.3,6.6 4.5,9.4 4.5,9.9 7.6,6.8 		"/>
            <polygon class="st10" points="7.6,6.8 4.5,9.9 4.5,10.5 8,7 		"/>
            <polygon class="st11" points="8,7 4.5,10.5 4.5,11 8.3,7.2 		"/>
            <polygon class="st12" points="8.3,7.2 4.5,11 4.5,11.6 8.7,7.4 		"/>
            <polygon class="st13" points="8.7,7.4 4.5,11.6 4.5,12.1 9,7.6 		"/>
            <polygon class="st14" points="9,7.6 4.5,12.1 4.5,12.7 9.4,7.8 		"/>
            <polygon class="st15" points="9.4,7.8 4.5,12.7 4.5,13.2 9.7,8 		"/>
            <polygon class="st16" points="9.7,8 4.5,13.2 4.5,13.8 10.1,8.2 		"/>
            <polygon class="st17" points="10.1,8.2 4.5,13.8 4.5,14.3 10.4,8.4 		"/>
            <polygon class="st18" points="10.4,8.4 4.5,14.3 4.5,14.9 10.8,8.6 		"/>
            <polygon class="st19" points="10.8,8.6 4.5,14.9 4.5,15.4 11.1,8.8 		"/>
            <polygon class="st20" points="11.1,8.8 4.5,15.4 4.5,16 11.5,9 		"/>
            <polygon class="st21" points="11.5,9 4.5,16 4.5,16.5 11.8,9.2 		"/>
            <polygon class="st22" points="12.2,9.4 11.8,9.2 4.5,16.5 4.5,17.1 12.2,9.4 		"/>
            <polygon class="st23" points="12.2,9.4 4.5,17.1 4.5,17.6 12.2,9.9 		"/>
            <polygon class="st24" points="12.2,9.9 4.5,17.6 4.5,18.2 12.2,10.5 		"/>
            <polygon class="st25" points="12.2,10.5 4.5,18.2 4.5,18.7 12.2,11.1 		"/>
            <polygon class="st26" points="12.2,11.1 4.5,18.7 4.5,19.3 12.2,11.6 		"/>
            <polygon class="st27" points="12.2,11.6 4.5,19.3 4.5,19.8 12.2,12.2 		"/>
            <polygon class="st28" points="12.2,12.2 4.5,19.8 4.5,20.4 12.2,12.7 		"/>
            <polygon class="st29" points="12.2,12.7 4.5,20.4 4.5,20.9 12.2,13.3 		"/>
            <polygon class="st30" points="12.2,13.3 4.5,20.9 4.5,21.5 12.2,13.8 		"/>
            <polygon class="st31" points="12.2,13.8 4.5,21.5 4.5,22 12.2,14.4 		"/>
            <polygon class="st32" points="12.2,14.4 4.5,22 4.5,22.6 12.2,14.9 		"/>
            <polygon class="st33" points="12.2,14.9 4.5,22.6 4.5,22.6 4.8,22.8 12.2,15.5 		"/>
            <polygon class="st34" points="12.2,15.5 4.8,22.8 5.2,23 12.2,16 		"/>
            <polygon class="st35" points="12.2,16 5.2,23 5.5,23.2 12.2,16.6 		"/>
            <polygon class="st36" points="12.2,16.6 5.5,23.2 5.9,23.4 12.2,17.1 		"/>
            <polygon class="st37" points="12.2,17.1 5.9,23.4 6.2,23.6 12.2,17.7 		"/>
            <polygon class="st38" points="12.2,18.2 12.2,18.2 12.2,17.7 6.2,23.6 6.6,23.8 12.2,18.2 		"/>
            <polygon class="st38" points="12.2,18.2 12.2,18.2 6.6,23.8 6.8,24 12.4,18.4 		"/>
            <polygon class="st38" points="12.4,18.4 6.8,24 7.1,24.1 12.7,18.5 		"/>
            <polygon class="st38" points="12.7,18.5 7.1,24.1 7.3,24.3 12.9,18.7 		"/>
            <polygon class="st38" points="12.9,18.7 7.3,24.3 7.6,24.4 13.2,18.8 		"/>
            <polygon class="st39" points="13.2,18.8 7.6,24.4 7.8,24.6 13.4,19 		"/>
            <polygon class="st39" points="13.4,19 7.8,24.6 8.1,24.7 13.7,19.1 		"/>
            <polygon class="st39" points="13.7,19.1 8.1,24.7 8.3,24.9 13.9,19.3 		"/>
            <polygon class="st40" points="13.9,19.3 8.3,24.9 8.6,25 14.2,19.4 		"/>
            <polygon class="st40" points="14.2,19.4 8.6,25 8.9,25.1 14.5,19.5 		"/>
            <polygon class="st40" points="14.5,19.5 8.9,25.1 9.1,25.3 14.7,19.7 		"/>
            <polygon class="st41" points="14.7,19.7 9.1,25.3 9.4,25.4 15,19.8 		"/>
            <polygon class="st41" points="15,19.8 9.4,25.4 9.6,25.6 15.2,20 		"/>
            <polygon class="st42" points="15.2,20 9.6,25.6 9.9,25.7 15.5,20.1 		"/>
            <polygon class="st43" points="15.5,20.1 9.9,25.7 10.1,25.9 15.7,20.3 		"/>
            <polygon class="st43" points="15.7,20.3 10.1,25.9 10.4,26 16,20.4 		"/>
            <polygon class="st44" points="16,20.4 10.4,26 10.6,26.2 16.2,20.6 		"/>
            <polygon class="st45" points="16.2,20.6 10.6,26.2 10.9,26.3 16.5,20.7 		"/>
            <polygon class="st45" points="16.5,20.7 10.9,26.3 11.2,26.5 16.8,20.9 		"/>
            <polygon class="st46" points="16.8,20.9 11.2,26.5 11.4,26.6 17,21 		"/>
            <polygon class="st47" points="17,21 11.4,26.6 11.7,26.8 17.3,21.2 		"/>
            <polygon class="st48" points="17.3,21.2 11.7,26.8 11.9,26.9 17.5,21.3 		"/>
            <polygon class="st49" points="17.5,21.3 11.9,26.9 12.2,27.1 17.8,21.5 		"/>
            <polygon class="st50" points="17.8,21.5 12.2,27.1 12.4,27.2 18,21.6 		"/>
            <polygon class="st51" points="18,21.6 12.4,27.2 12.7,27.4 18.3,21.8 		"/>
            <polygon class="st52" points="18.3,21.8 12.7,27.4 12.9,27.5 18.5,21.9 		"/>
            <polygon class="st53" points="18.5,21.9 12.9,27.5 13.2,27.7 18.8,22.1 		"/>
            <polygon class="st54" points="18.8,22.1 13.2,27.7 13.4,27.8 19,22.2 		"/>
            <polygon class="st55" points="19,22.2 13.4,27.8 13.7,28 19.3,22.4 		"/>
            <polygon class="st56" points="19.3,22.4 13.7,28 14,28.1 19.6,22.5 		"/>
            <polygon class="st57" points="19.6,22.5 14,28.1 14.2,28.2 19.8,22.6 		"/>
            <polygon class="st58" points="14.2,28.2 14.5,28.4 19.8,23 19.8,22.7 19.8,22.6 		"/>
            <polygon class="st59" points="14.7,28.5 19.8,23.4 19.8,23 14.5,28.4 		"/>
            <polygon class="st60" points="15,28.7 19.8,23.8 19.8,23.4 14.7,28.5 		"/>
            <polygon class="st61" points="15.2,28.8 19.8,24.2 19.8,23.8 15,28.7 		"/>
            <polygon class="st62" points="15.5,29 19.8,24.6 19.8,24.2 15.2,28.8 		"/>
            <polygon class="st63" points="15.7,29.1 19.8,25 19.8,24.6 15.5,29 		"/>
            <polygon class="st64" points="16,29.3 19.8,25.4 19.8,25 15.7,29.1 		"/>
            <polygon class="st65" points="16.3,29.4 19.8,25.8 19.8,25.4 16,29.3 		"/>
            <polygon class="st66" points="16.5,29.6 19.8,26.2 19.8,25.8 16.3,29.4 		"/>
            <polygon class="st67" points="16.8,29.7 19.8,26.6 19.8,26.2 16.5,29.6 		"/>
            <polygon class="st68" points="17,29.9 19.8,27.1 19.8,26.6 16.8,29.7 		"/>
            <polygon class="st69" points="17.3,30 19.8,27.5 19.8,27.1 17,29.9 		"/>
            <polygon class="st70" points="17.5,30.2 19.8,27.9 19.8,27.5 17.3,30 		"/>
            <polygon class="st71" points="17.8,30.3 19.8,28.3 19.8,27.9 17.5,30.2 		"/>
            <polygon class="st72" points="18,30.5 19.8,28.7 19.8,28.3 17.8,30.3 		"/>
            <polygon class="st73" points="18.3,30.6 19.8,29.1 19.8,28.7 18,30.5 		"/>
            <polygon class="st74" points="18.6,30.8 19.8,29.5 19.8,29.1 18.3,30.6 		"/>
            <polygon class="st75" points="18.8,30.9 19.8,29.9 19.8,29.5 18.6,30.8 		"/>
            <polygon class="st76" points="19.1,31.1 19.8,30.3 19.8,29.9 18.8,30.9 		"/>
            <polygon class="st77" points="19.3,31.2 19.8,30.7 19.8,30.3 19.1,31.1 		"/>
            <polygon class="st78" points="19.6,31.3 19.8,31.1 19.8,30.7 19.3,31.2 		"/>
            <polygon class="st78" points="19.8,31.5 19.8,31.1 19.6,31.3 		"/>
	</g>
        <g>
		<polygon class="st79" points="4.5,4.9 4.6,5 5,4.6 		"/>
            <polygon class="st79" points="5,4.6 4.6,5 4.8,5.1 5.6,4.3 		"/>
            <polygon class="st79" points="5.6,4.3 4.8,5.1 4.9,5.2 6.2,4 		"/>
            <polygon class="st80" points="6.2,4 4.9,5.2 5.1,5.3 6.7,3.6 		"/>
            <polygon class="st80" points="6.7,3.6 5.1,5.3 5.2,5.4 7.3,3.3 		"/>
            <polygon class="st80" points="7.3,3.3 5.2,5.4 5.4,5.5 7.9,3 		"/>
            <polygon class="st81" points="7.9,3 5.4,5.5 5.5,5.5 8.4,2.7 		"/>
            <polygon class="st81" points="8.4,2.7 5.5,5.5 5.7,5.6 9,2.3 		"/>
            <polygon class="st82" points="9,2.3 5.7,5.6 5.8,5.7 9.5,2 		"/>
            <polygon class="st83" points="9.5,2 5.8,5.7 6,5.8 10.1,1.7 		"/>
            <polygon class="st83" points="10.1,1.7 6,5.8 6.1,5.9 10.7,1.4 		"/>
            <polygon class="st84" points="10.7,1.4 6.1,5.9 6.3,6 11.2,1 		"/>
            <polygon class="st84" points="11.2,1 6.3,6 6.4,6.1 11.8,0.7 		"/>
            <polygon class="st85" points="12.1,0.5 11.8,0.7 6.4,6.1 6.6,6.2 12.2,0.5 		"/>
            <polygon class="st86" points="12.2,0.5 6.6,6.2 6.7,6.2 12.3,0.6 		"/>
            <polygon class="st87" points="12.3,0.6 6.7,6.2 6.9,6.3 12.5,0.7 		"/>
            <polygon class="st87" points="12.5,0.7 6.9,6.3 7,6.4 12.6,0.8 		"/>
            <polygon class="st88" points="12.6,0.8 7,6.4 7.2,6.5 12.8,0.9 		"/>
            <polygon class="st89" points="12.8,0.9 7.2,6.5 7.3,6.6 12.9,1 		"/>
            <polygon class="st90" points="12.9,1 7.3,6.6 7.5,6.7 13.1,1 		"/>
            <polygon class="st91" points="13.1,1 7.5,6.7 7.6,6.8 13.2,1.1 		"/>
            <polygon class="st91" points="13.2,1.1 7.6,6.8 7.8,6.8 13.4,1.2 		"/>
            <polygon class="st1" points="13.4,1.2 7.8,6.8 7.9,6.9 13.5,1.3 		"/>
            <polygon class="st2" points="13.5,1.3 7.9,6.9 8.1,7 13.7,1.4 		"/>
            <polygon class="st3" points="13.7,1.4 8.1,7 8.2,7.1 13.8,1.5 		"/>
            <polygon class="st4" points="13.8,1.5 8.2,7.1 8.4,7.2 14,1.6 		"/>
            <polygon class="st5" points="14,1.6 8.4,7.2 8.5,7.3 14.1,1.7 		"/>
            <polygon class="st6" points="14.1,1.7 8.5,7.3 8.7,7.4 14.3,1.7 		"/>
            <polygon class="st7" points="14.3,1.7 8.7,7.4 8.8,7.5 14.4,1.8 		"/>
            <polygon class="st8" points="14.4,1.8 8.8,7.5 9,7.5 14.6,1.9 		"/>
            <polygon class="st9" points="14.6,1.9 9,7.5 9.1,7.6 14.7,2 		"/>
            <polygon class="st10" points="14.7,2 9.1,7.6 9.3,7.7 14.9,2.1 		"/>
            <polygon class="st11" points="14.9,2.1 9.3,7.7 9.4,7.8 15,2.2 		"/>
            <polygon class="st12" points="15,2.2 9.4,7.8 9.6,7.9 15.2,2.3 		"/>
            <polygon class="st13" points="15.2,2.3 9.6,7.9 9.7,8 15.3,2.3 		"/>
            <polygon class="st14" points="15.3,2.3 9.7,8 9.9,8.1 15.5,2.4 		"/>
            <polygon class="st16" points="15.5,2.4 9.9,8.1 10,8.1 15.6,2.5 		"/>
            <polygon class="st17" points="15.6,2.5 10,8.1 10.2,8.2 15.8,2.6 		"/>
            <polygon class="st18" points="15.8,2.6 10.2,8.2 10.3,8.3 15.9,2.7 		"/>
            <polygon class="st19" points="15.9,2.7 10.3,8.3 10.5,8.4 16.1,2.8 		"/>
            <polygon class="st92" points="16.1,2.8 10.5,8.4 10.6,8.5 16.2,2.9 		"/>
            <polygon class="st21" points="16.2,2.9 10.6,8.5 10.8,8.6 16.4,3 		"/>
            <polygon class="st22" points="16.4,3 10.8,8.6 10.9,8.7 16.5,3 		"/>
            <polygon class="st23" points="16.5,3 10.9,8.7 11.1,8.7 16.7,3.1 		"/>
            <polygon class="st24" points="16.7,3.1 11.1,8.7 11.2,8.8 16.8,3.2 		"/>
            <polygon class="st25" points="16.8,3.2 11.2,8.8 11.4,8.9 17,3.3 		"/>
            <polygon class="st27" points="17,3.3 11.4,8.9 11.5,9 17.1,3.4 		"/>
            <polygon class="st28" points="17.1,3.4 11.5,9 11.7,9.1 17.3,3.5 		"/>
            <polygon class="st29" points="17.3,3.5 11.7,9.1 11.8,9.2 17.4,3.6 		"/>
            <polygon class="st31" points="17.4,3.6 11.8,9.2 12,9.3 17.6,3.6 		"/>
            <polygon class="st32" points="17.6,3.6 12,9.3 12.1,9.4 17.7,3.7 		"/>
            <polygon class="st33" points="17.7,3.7 12.1,9.4 12.2,9.4 12.6,9.2 17.9,3.8 		"/>
            <polygon class="st35" points="17.9,3.8 12.6,9.2 13.1,8.8 18,3.9 		"/>
            <polygon class="st36" points="18,3.9 13.1,8.8 13.7,8.5 18.2,4 		"/>
            <polygon class="st37" points="18.2,4 13.7,8.5 14.2,8.2 18.3,4.1 		"/>
            <polygon class="st39" points="18.3,4.1 14.2,8.2 14.8,7.9 18.5,4.2 		"/>
            <polygon class="st40" points="18.5,4.2 14.8,7.9 15.4,7.5 18.6,4.2 		"/>
            <polygon class="st42" points="18.6,4.2 15.4,7.5 15.9,7.2 18.8,4.3 		"/>
            <polygon class="st43" points="18.8,4.3 15.9,7.2 16.5,6.9 18.9,4.4 		"/>
            <polygon class="st45" points="18.9,4.4 16.5,6.9 17,6.6 19.1,4.5 		"/>
            <polygon class="st46" points="19.1,4.5 17,6.6 17.6,6.2 19.2,4.6 		"/>
            <polygon class="st48" points="19.2,4.6 17.6,6.2 18.2,5.9 19.4,4.7 		"/>
            <polygon class="st49" points="19.4,4.7 18.2,5.9 18.7,5.6 19.5,4.8 		"/>
            <polygon class="st50" points="19.5,4.8 18.7,5.6 19.3,5.3 19.7,4.9 		"/>
            <polygon class="st52" points="19.3,5.3 19.8,4.9 19.7,4.9 		"/>
	</g>
        <polygon class="st93" points="27.8,18.7 27.3,17.8 19.8,22.1 13.2,18.2 20.1,14.2 19.6,13.3 12.7,17.4 12.7,9.7 20.1,5.4 19.6,4.5
		12.2,8.8 4.7,4.5 4.2,5.4 11.7,9.7 11.7,17.4 4.7,13.3 4.2,14.2 11.7,18.5 11.7,27.1 12.7,27.1 12.7,19.1 19.3,22.9 19.3,31.5 
		20.3,31.5 20.3,22.9 	"/>
        <g>
		<path class="st94" d="M19.8,32c-0.1,0-0.2,0-0.3-0.1L4.2,23.1C4.1,23,4,22.8,4,22.6V4.9c0-0.2,0.1-0.3,0.2-0.4l7.7-4.4
			c0.2-0.1,0.3-0.1,0.5,0l7.7,4.4c0.2,0.1,0.3,0.3,0.3,0.4l0,8.6l7.4,4.3c0.2,0.1,0.3,0.3,0.3,0.4v8.8c0,0.2-0.1,0.3-0.3,0.4
			l-7.7,4.4C20,32,19.9,32,19.8,32z M5,22.3l14.9,8.6l7.2-4.2v-8.3l-7.4-4.3c-0.2-0.1-0.3-0.3-0.3-0.4l0-8.6l-7.2-4.2L5,5.2V22.3z"
        />
	</g>
</g>
    <g>
	<rect class="st95" width="32" height="32"/>
</g>
</svg>
