<?xml version="1.0" encoding="utf-8"?>
<!-- Generator: Adobe Illustrator 19.2.1, SVG Export Plug-In . SVG Version: 6.00 Build 0)  -->
<svg xmlns:xlink="http://www.w3.org/1999/xlink" version="1.1" id="Layer_1" xmlns="http://www.w3.org/2000/svg" x="0px"
     y="0px"
     viewBox="0 0 32 32" style="enable-background:new 0 0 32 32;" xml:space="preserve">
<style type="text/css">
	.st0{fill:#3C91AF;}
	.st1{fill:#CDE6EB;}
	.st2{fill:#CCE6EB;}
	.st3{fill:#CCE5EB;}
	.st4{fill:#CCE5EA;}
	.st5{fill:#CBE5EA;}
	.st6{fill:#CAE4EA;}
	.st7{fill:#C9E4EA;}
	.st8{fill:#C9E4E9;}
	.st9{fill:#C8E3E9;}
	.st10{fill:#C7E3E9;}
	.st11{fill:#C6E2E8;}
	.st12{fill:#C5E2E8;}
	.st13{fill:#C4E1E8;}
	.st14{fill:#C3E1E7;}
	.st15{fill:#C2E0E7;}
	.st16{fill:#C1E0E7;}
	.st17{fill:#C1DFE6;}
	.st18{fill:#C0DFE6;}
	.st19{fill:#BFDEE6;}
	.st20{fill:#BEDEE5;}
	.st21{fill:#BDDDE5;}
	.st22{fill:#BCDDE4;}
	.st23{fill:#BBDCE4;}
	.st24{fill:#BADCE4;}
	.st25{fill:#B9DBE3;}
	.st26{fill:#B8DBE3;}
	.st27{fill:#B7DAE2;}
	.st28{fill:#B6DAE2;}
	.st29{fill:#B5D9E2;}
	.st30{fill:#B4D8E1;}
	.st31{fill:#B2D8E1;}
	.st32{fill:#B1D7E0;}
	.st33{fill:#B0D6E0;}
	.st34{fill:#AFD6DF;}
	.st35{fill:#AED5DF;}
	.st36{fill:#ADD5DF;}
	.st37{fill:#ABD4DE;}
	.st38{fill:#AAD3DE;}
	.st39{fill:#A9D3DD;}
	.st40{fill:#A8D2DD;}
	.st41{fill:#A6D1DC;}
	.st42{fill:#A5D1DC;}
	.st43{fill:#A4D0DB;}
	.st44{fill:#A3CFDB;}
	.st45{fill:#A1CEDA;}
	.st46{fill:#A0CEDA;}
	.st47{fill:#9FCDD9;}
	.st48{fill:#9DCCD9;}
	.st49{fill:#9CCCD8;}
	.st50{fill:#9BCBD8;}
	.st51{fill:#99CAD7;}
	.st52{fill:#98C9D6;}
	.st53{fill:#96C9D6;}
	.st54{fill:#95C8D5;}
	.st55{fill:#93C7D5;}
	.st56{fill:#92C6D4;}
	.st57{fill:#90C5D4;}
	.st58{fill:#8FC5D3;}
	.st59{fill:#8EC4D3;}
	.st60{fill:#8CC3D2;}
	.st61{fill:#AFD7E1;}
	.st62{fill:#AED6E0;}
	.st63{fill:#ADD6E0;}
	.st64{fill:#ABD5DF;}
	.st65{fill:#AAD4DF;}
	.st66{fill:#A9D3DE;}
	.st67{fill:#A8D3DE;}
	.st68{fill:#A6D2DD;}
	.st69{fill:#A5D1DD;}
	.st70{fill:#A4D1DC;}
	.st71{fill:#A3D0DC;}
	.st72{fill:#A2CFDB;}
	.st73{fill:#A0CEDB;}
	.st74{fill:#9FCEDA;}
	.st75{fill:#9ECDDA;}
	.st76{fill:#9CCCD9;}
	.st77{fill:#99CAD8;}
	.st78{fill:#98CAD8;}
	.st79{fill:#97C9D7;}
	.st80{fill:#96C8D7;}
	.st81{fill:#95C8D6;}
	.st82{fill:#94C7D6;}
	.st83{fill:#93C6D5;}
	.st84{fill:#92C6D5;}
	.st85{fill:#8FC5D4;}
	.st86{fill:#8DC3D3;}
	.st87{fill:#8BC2D2;}
	.st88{fill:#8AC1D2;}
	.st89{fill:#89C1D1;}
	.st90{fill:#88C0D1;}
	.st91{fill:#87C0D0;}
	.st92{fill:#86BFD0;}
	.st93{fill:#85BECF;}
	.st94{fill:#84BECF;}
	.st95{fill:#83BDCF;}
	.st96{fill:#82BDCE;}
	.st97{fill:#81BCCE;}
	.st98{fill:#80BCCD;}
	.st99{fill:#7FBBCD;}
	.st100{fill:#7EBBCD;}
	.st101{fill:#7DBACC;}
	.st102{fill:#7CB9CC;}
	.st103{fill:#7BB8CB;}
	.st104{fill:#7AB8CB;}
	.st105{fill:#79B7CA;}
	.st106{fill:#78B7CA;}
	.st107{fill:#77B7CA;}
	.st108{fill:#77B6CA;}
	.st109{fill:#76B6C9;}
	.st110{fill:#75B5C9;}
	.st111{fill:#74B5C8;}
	.st112{fill:#73B4C8;}
	.st113{fill:#147391;}
	.st114{fill:#ffffff;}
	.st115{fill:none;}
</style>

    <g>
	<g>
		<polygon class="st0" points="19.8,22.7 19.8,31.5 27.5,27.1 27.5,18.2 		"/>
	</g>
        <g>
		<polygon class="st0" points="12.2,9.4 12.2,18.2 19.8,13.8 19.8,4.9 		"/>
	</g>
        <g>
		<polygon class="st1" points="12.2,18.2 12.3,18.3 12.7,17.9 		"/>
            <polygon class="st1" points="12.7,17.9 12.3,18.3 12.5,18.4 13.3,17.6 		"/>
            <polygon class="st1" points="13.3,17.6 12.5,18.4 12.6,18.5 13.8,17.2 		"/>
            <polygon class="st2" points="13.8,17.2 12.6,18.5 12.8,18.6 14.4,16.9 		"/>
            <polygon class="st3" points="14.4,16.9 12.8,18.6 12.9,18.7 15,16.6 		"/>
            <polygon class="st4" points="15,16.6 12.9,18.7 13.1,18.7 15.5,16.3 		"/>
            <polygon class="st5" points="15.5,16.3 13.1,18.7 13.2,18.8 16.1,15.9 		"/>
            <polygon class="st5" points="16.1,15.9 13.2,18.8 13.4,18.9 16.7,15.6 		"/>
            <polygon class="st6" points="16.7,15.6 13.4,18.9 13.5,19 17.2,15.3 		"/>
            <polygon class="st7" points="17.2,15.3 13.5,19 13.7,19.1 17.8,15 		"/>
            <polygon class="st8" points="17.8,15 13.7,19.1 13.8,19.2 18.3,14.6 		"/>
            <polygon class="st9" points="18.3,14.6 13.8,19.2 14,19.3 18.9,14.3 		"/>
            <polygon class="st9" points="18.9,14.3 14,19.3 14.1,19.3 19.5,14 		"/>
            <polygon class="st10" points="19.8,13.8 19.5,14 14.1,19.3 14.3,19.4 19.9,13.8 		"/>
            <polygon class="st11" points="19.9,13.8 14.3,19.4 14.4,19.5 20,13.9 		"/>
            <polygon class="st12" points="20,13.9 14.4,19.5 14.6,19.6 20.2,14 		"/>
            <polygon class="st12" points="20.2,14 14.6,19.6 14.7,19.7 20.3,14.1 		"/>
            <polygon class="st13" points="20.3,14.1 14.7,19.7 14.9,19.8 20.5,14.2 		"/>
            <polygon class="st14" points="20.5,14.2 14.9,19.8 15,19.9 20.6,14.2 		"/>
            <polygon class="st15" points="20.6,14.2 15,19.9 15.2,20 20.8,14.3 		"/>
            <polygon class="st16" points="20.8,14.3 15.2,20 15.3,20 20.9,14.4 		"/>
            <polygon class="st17" points="20.9,14.4 15.3,20 15.5,20.1 21.1,14.5 		"/>
            <polygon class="st18" points="21.1,14.5 15.5,20.1 15.6,20.2 21.2,14.6 		"/>
            <polygon class="st19" points="21.2,14.6 15.6,20.2 15.8,20.3 21.4,14.7 		"/>
            <polygon class="st20" points="21.4,14.7 15.8,20.3 15.9,20.4 21.5,14.8 		"/>
            <polygon class="st21" points="21.5,14.8 15.9,20.4 16.1,20.5 21.7,14.8 		"/>
            <polygon class="st22" points="21.7,14.8 16.1,20.5 16.2,20.6 21.8,14.9 		"/>
            <polygon class="st23" points="21.8,14.9 16.2,20.6 16.4,20.6 22,15 		"/>
            <polygon class="st24" points="22,15 16.4,20.6 16.5,20.7 22.1,15.1 		"/>
            <polygon class="st25" points="22.1,15.1 16.5,20.7 16.7,20.8 22.3,15.2 		"/>
            <polygon class="st26" points="22.3,15.2 16.7,20.8 16.8,20.9 22.4,15.3 		"/>
            <polygon class="st27" points="22.4,15.3 16.8,20.9 17,21 22.6,15.4 		"/>
            <polygon class="st28" points="22.6,15.4 17,21 17.1,21.1 22.7,15.5 		"/>
            <polygon class="st29" points="22.7,15.5 17.1,21.1 17.3,21.2 22.9,15.5 		"/>
            <polygon class="st30" points="22.9,15.5 17.3,21.2 17.4,21.3 23,15.6 		"/>
            <polygon class="st31" points="23,15.6 17.4,21.3 17.5,21.3 23.2,15.7 		"/>
            <polygon class="st32" points="23.2,15.7 17.5,21.3 17.7,21.4 23.3,15.8 		"/>
            <polygon class="st33" points="23.3,15.8 17.7,21.4 17.8,21.5 23.5,15.9 		"/>
            <polygon class="st34" points="23.5,15.9 17.8,21.5 18,21.6 23.6,16 		"/>
            <polygon class="st35" points="23.6,16 18,21.6 18.1,21.7 23.8,16.1 		"/>
            <polygon class="st36" points="23.8,16.1 18.1,21.7 18.3,21.8 23.9,16.1 		"/>
            <polygon class="st37" points="23.9,16.1 18.3,21.8 18.4,21.9 24.1,16.2 		"/>
            <polygon class="st38" points="24.1,16.2 18.4,21.9 18.6,21.9 24.2,16.3 		"/>
            <polygon class="st39" points="24.2,16.3 18.6,21.9 18.7,22 24.4,16.4 		"/>
            <polygon class="st40" points="24.4,16.4 18.7,22 18.9,22.1 24.5,16.5 		"/>
            <polygon class="st41" points="24.5,16.5 18.9,22.1 19,22.2 24.7,16.6 		"/>
            <polygon class="st42" points="24.7,16.6 19,22.2 19.2,22.3 24.8,16.7 		"/>
            <polygon class="st43" points="24.8,16.7 19.2,22.3 19.3,22.4 25,16.8 		"/>
            <polygon class="st44" points="25,16.8 19.3,22.4 19.5,22.5 25.1,16.8 		"/>
            <polygon class="st45" points="25.1,16.8 19.5,22.5 19.6,22.5 25.3,16.9 		"/>
            <polygon class="st46" points="25.3,16.9 19.6,22.5 19.8,22.6 25.4,17 		"/>
            <polygon class="st47" points="25.4,17 19.8,22.6 19.8,22.7 20.2,22.4 25.6,17.1 		"/>
            <polygon class="st48" points="25.6,17.1 20.2,22.4 20.8,22.1 25.7,17.2 		"/>
            <polygon class="st49" points="25.7,17.2 20.8,22.1 21.4,21.8 25.9,17.3 		"/>
            <polygon class="st50" points="25.9,17.3 21.4,21.8 21.9,21.5 26,17.4 		"/>
            <polygon class="st51" points="26,17.4 21.9,21.5 22.5,21.1 26.2,17.4 		"/>
            <polygon class="st52" points="26.2,17.4 22.5,21.1 23,20.8 26.3,17.5 		"/>
            <polygon class="st53" points="26.3,17.5 23,20.8 23.6,20.5 26.5,17.6 		"/>
            <polygon class="st54" points="26.5,17.6 23.6,20.5 24.2,20.2 26.6,17.7 		"/>
            <polygon class="st55" points="26.6,17.7 24.2,20.2 24.7,19.8 26.8,17.8 		"/>
            <polygon class="st56" points="26.8,17.8 24.7,19.8 25.3,19.5 26.9,17.9 		"/>
            <polygon class="st57" points="26.9,17.9 25.3,19.5 25.8,19.2 27.1,18 		"/>
            <polygon class="st58" points="27.1,18 25.8,19.2 26.4,18.9 27.2,18 		"/>
            <polygon class="st59" points="27.2,18 26.4,18.9 27,18.5 27.4,18.1 		"/>
            <polygon class="st60" points="27,18.5 27.5,18.2 27.4,18.1 		"/>
	</g>
        <g>
		<polygon class="st61" points="4.5,4.9 4.5,5.6 4.9,5.2 		"/>
            <polygon class="st62" points="4.9,5.2 4.5,5.6 4.5,6.3 5.4,5.5 		"/>
            <polygon class="st63" points="5.4,5.5 4.5,6.3 4.5,7 5.8,5.7 		"/>
            <polygon class="st64" points="5.8,5.7 4.5,7 4.5,7.7 6.3,6 		"/>
            <polygon class="st65" points="6.3,6 4.5,7.7 4.5,8.4 6.7,6.2 		"/>
            <polygon class="st66" points="6.7,6.2 4.5,8.4 4.5,9.1 7.1,6.5 		"/>
            <polygon class="st67" points="7.1,6.5 4.5,9.1 4.5,9.8 7.6,6.7 		"/>
            <polygon class="st68" points="7.6,6.7 4.5,9.8 4.5,10.5 8,7 		"/>
            <polygon class="st69" points="8,7 4.5,10.5 4.5,11.2 8.5,7.2 		"/>
            <polygon class="st70" points="8.5,7.2 4.5,11.2 4.5,11.9 8.9,7.5 		"/>
            <polygon class="st71" points="8.9,7.5 4.5,11.9 4.5,12.6 9.4,7.8 		"/>
            <polygon class="st72" points="9.4,7.8 4.5,12.6 4.5,13.3 9.8,8 		"/>
            <polygon class="st73" points="9.8,8 4.5,13.3 4.5,14 10.2,8.3 		"/>
            <polygon class="st74" points="10.2,8.3 4.5,14 4.5,14.7 10.7,8.5 		"/>
            <polygon class="st75" points="10.7,8.5 4.5,14.7 4.5,15.4 11.1,8.8 		"/>
            <polygon class="st48" points="11.1,8.8 4.5,15.4 4.5,16.1 11.6,9 		"/>
            <polygon class="st76" points="11.6,9 4.5,16.1 4.5,16.8 12,9.3 		"/>
            <polygon class="st50" points="12.2,9.4 12,9.3 4.5,16.8 4.5,17.5 12.2,9.8 		"/>
            <polygon class="st77" points="12.2,9.8 4.5,17.5 4.5,18.2 12.2,10.5 		"/>
            <polygon class="st78" points="12.2,10.5 4.5,18.2 4.5,18.9 12.2,11.2 		"/>
            <polygon class="st79" points="12.2,11.2 4.5,18.9 4.5,19.6 12.2,11.9 		"/>
            <polygon class="st80" points="12.2,11.9 4.5,19.6 4.5,20.3 12.2,12.6 		"/>
            <polygon class="st81" points="12.2,12.6 4.5,20.3 4.5,21 12.2,13.3 		"/>
            <polygon class="st82" points="12.2,13.3 4.5,21 4.5,21.7 12.2,14 		"/>
            <polygon class="st83" points="12.2,14 4.5,21.7 4.5,22.4 12.2,14.7 		"/>
            <polygon class="st84" points="12.2,14.7 4.5,22.4 4.5,22.6 4.8,22.8 12.2,15.4 		"/>
            <polygon class="st57" points="12.2,15.4 4.8,22.8 5.2,23.1 12.2,16.1 		"/>
            <polygon class="st85" points="12.2,16.1 5.2,23.1 5.7,23.3 12.2,16.8 		"/>
            <polygon class="st59" points="12.2,16.8 5.7,23.3 6.1,23.6 12.2,17.5 		"/>
            <polygon class="st86" points="12.2,18.2 12.2,18.2 12.2,17.5 6.1,23.6 6.6,23.8 12.2,18.2 		"/>
            <polygon class="st60" points="12.2,18.2 12.2,18.2 6.6,23.8 7,24.1 12.6,18.5 		"/>
            <polygon class="st87" points="12.6,18.5 7,24.1 7.4,24.3 13,18.7 		"/>
            <polygon class="st88" points="13,18.7 7.4,24.3 7.9,24.6 13.5,19 		"/>
            <polygon class="st89" points="13.5,19 7.9,24.6 8.3,24.8 13.9,19.2 		"/>
            <polygon class="st90" points="13.9,19.2 8.3,24.8 8.8,25.1 14.4,19.5 		"/>
            <polygon class="st91" points="14.4,19.5 8.8,25.1 9.2,25.4 14.8,19.8 		"/>
            <polygon class="st92" points="14.8,19.8 9.2,25.4 9.7,25.6 15.3,20 		"/>
            <polygon class="st93" points="15.3,20 9.7,25.6 10.1,25.9 15.7,20.3 		"/>
            <polygon class="st94" points="15.7,20.3 10.1,25.9 10.5,26.1 16.1,20.5 		"/>
            <polygon class="st95" points="16.1,20.5 10.5,26.1 11,26.4 16.6,20.8 		"/>
            <polygon class="st96" points="16.6,20.8 11,26.4 11.4,26.6 17,21 		"/>
            <polygon class="st97" points="17,21 11.4,26.6 11.9,26.9 17.5,21.3 		"/>
            <polygon class="st98" points="17.5,21.3 11.9,26.9 12.3,27.1 17.9,21.5 		"/>
            <polygon class="st99" points="17.9,21.5 12.3,27.1 12.8,27.4 18.4,21.8 		"/>
            <polygon class="st100" points="18.4,21.8 12.8,27.4 13.2,27.7 18.8,22.1 		"/>
            <polygon class="st101" points="18.8,22.1 13.2,27.7 13.6,27.9 19.2,22.3 		"/>
            <polygon class="st102" points="19.2,22.3 13.6,27.9 14.1,28.2 19.7,22.6 		"/>
            <polygon class="st102" points="14.1,28.2 14.5,28.4 19.8,23.1 19.8,22.7 19.7,22.6 		"/>
            <polygon class="st103" points="15,28.7 19.8,23.8 19.8,23.1 14.5,28.4 		"/>
            <polygon class="st104" points="15.4,28.9 19.8,24.5 19.8,23.8 15,28.7 		"/>
            <polygon class="st105" points="15.9,29.2 19.8,25.2 19.8,24.5 15.4,28.9 		"/>
            <polygon class="st106" points="16.3,29.5 19.8,25.9 19.8,25.2 15.9,29.2 		"/>
            <polygon class="st107" points="16.7,29.7 19.8,26.6 19.8,25.9 16.3,29.5 		"/>
            <polygon class="st108" points="17.2,30 19.8,27.3 19.8,26.6 16.7,29.7 		"/>
            <polygon class="st109" points="17.6,30.2 19.8,28 19.8,27.3 17.2,30 		"/>
            <polygon class="st110" points="18.1,30.5 19.8,28.7 19.8,28 17.6,30.2 		"/>
            <polygon class="st110" points="18.5,30.7 19.8,29.4 19.8,28.7 18.1,30.5 		"/>
            <polygon class="st111" points="19,31 19.8,30.1 19.8,29.4 18.5,30.7 		"/>
            <polygon class="st112" points="19.4,31.2 19.8,30.8 19.8,30.1 19,31 		"/>
            <polygon class="st112" points="19.8,31.5 19.8,30.8 19.4,31.2 		"/>
	</g>
        <g>
		<polygon class="st1" points="4.5,4.9 4.6,5 5,4.6 		"/>
            <polygon class="st1" points="5,4.6 4.6,5 4.8,5.1 5.6,4.3 		"/>
            <polygon class="st1" points="5.6,4.3 4.8,5.1 4.9,5.2 6.2,4 		"/>
            <polygon class="st2" points="6.2,4 4.9,5.2 5.1,5.3 6.7,3.6 		"/>
            <polygon class="st3" points="6.7,3.6 5.1,5.3 5.2,5.4 7.3,3.3 		"/>
            <polygon class="st4" points="7.3,3.3 5.2,5.4 5.4,5.5 7.9,3 		"/>
            <polygon class="st5" points="7.9,3 5.4,5.5 5.5,5.5 8.4,2.7 		"/>
            <polygon class="st5" points="8.4,2.7 5.5,5.5 5.7,5.6 9,2.3 		"/>
            <polygon class="st6" points="9,2.3 5.7,5.6 5.8,5.7 9.5,2 		"/>
            <polygon class="st7" points="9.5,2 5.8,5.7 6,5.8 10.1,1.7 		"/>
            <polygon class="st8" points="10.1,1.7 6,5.8 6.1,5.9 10.7,1.4 		"/>
            <polygon class="st9" points="10.7,1.4 6.1,5.9 6.3,6 11.2,1 		"/>
            <polygon class="st9" points="11.2,1 6.3,6 6.4,6.1 11.8,0.7 		"/>
            <polygon class="st10" points="12.1,0.5 11.8,0.7 6.4,6.1 6.6,6.2 12.2,0.5 		"/>
            <polygon class="st11" points="12.2,0.5 6.6,6.2 6.7,6.2 12.3,0.6 		"/>
            <polygon class="st12" points="12.3,0.6 6.7,6.2 6.9,6.3 12.5,0.7 		"/>
            <polygon class="st12" points="12.5,0.7 6.9,6.3 7,6.4 12.6,0.8 		"/>
            <polygon class="st13" points="12.6,0.8 7,6.4 7.2,6.5 12.8,0.9 		"/>
            <polygon class="st14" points="12.8,0.9 7.2,6.5 7.3,6.6 12.9,1 		"/>
            <polygon class="st15" points="12.9,1 7.3,6.6 7.5,6.7 13.1,1 		"/>
            <polygon class="st16" points="13.1,1 7.5,6.7 7.6,6.8 13.2,1.1 		"/>
            <polygon class="st17" points="13.2,1.1 7.6,6.8 7.8,6.8 13.4,1.2 		"/>
            <polygon class="st18" points="13.4,1.2 7.8,6.8 7.9,6.9 13.5,1.3 		"/>
            <polygon class="st19" points="13.5,1.3 7.9,6.9 8.1,7 13.7,1.4 		"/>
            <polygon class="st20" points="13.7,1.4 8.1,7 8.2,7.1 13.8,1.5 		"/>
            <polygon class="st21" points="13.8,1.5 8.2,7.1 8.4,7.2 14,1.6 		"/>
            <polygon class="st22" points="14,1.6 8.4,7.2 8.5,7.3 14.1,1.7 		"/>
            <polygon class="st23" points="14.1,1.7 8.5,7.3 8.7,7.4 14.3,1.7 		"/>
            <polygon class="st24" points="14.3,1.7 8.7,7.4 8.8,7.5 14.4,1.8 		"/>
            <polygon class="st25" points="14.4,1.8 8.8,7.5 9,7.5 14.6,1.9 		"/>
            <polygon class="st26" points="14.6,1.9 9,7.5 9.1,7.6 14.7,2 		"/>
            <polygon class="st27" points="14.7,2 9.1,7.6 9.3,7.7 14.9,2.1 		"/>
            <polygon class="st28" points="14.9,2.1 9.3,7.7 9.4,7.8 15,2.2 		"/>
            <polygon class="st29" points="15,2.2 9.4,7.8 9.6,7.9 15.2,2.3 		"/>
            <polygon class="st30" points="15.2,2.3 9.6,7.9 9.7,8 15.3,2.3 		"/>
            <polygon class="st31" points="15.3,2.3 9.7,8 9.9,8.1 15.5,2.4 		"/>
            <polygon class="st32" points="15.5,2.4 9.9,8.1 10,8.1 15.6,2.5 		"/>
            <polygon class="st33" points="15.6,2.5 10,8.1 10.2,8.2 15.8,2.6 		"/>
            <polygon class="st34" points="15.8,2.6 10.2,8.2 10.3,8.3 15.9,2.7 		"/>
            <polygon class="st35" points="15.9,2.7 10.3,8.3 10.5,8.4 16.1,2.8 		"/>
            <polygon class="st36" points="16.1,2.8 10.5,8.4 10.6,8.5 16.2,2.9 		"/>
            <polygon class="st37" points="16.2,2.9 10.6,8.5 10.8,8.6 16.4,3 		"/>
            <polygon class="st38" points="16.4,3 10.8,8.6 10.9,8.7 16.5,3 		"/>
            <polygon class="st39" points="16.5,3 10.9,8.7 11.1,8.7 16.7,3.1 		"/>
            <polygon class="st40" points="16.7,3.1 11.1,8.7 11.2,8.8 16.8,3.2 		"/>
            <polygon class="st41" points="16.8,3.2 11.2,8.8 11.4,8.9 17,3.3 		"/>
            <polygon class="st42" points="17,3.3 11.4,8.9 11.5,9 17.1,3.4 		"/>
            <polygon class="st43" points="17.1,3.4 11.5,9 11.7,9.1 17.3,3.5 		"/>
            <polygon class="st44" points="17.3,3.5 11.7,9.1 11.8,9.2 17.4,3.6 		"/>
            <polygon class="st45" points="17.4,3.6 11.8,9.2 12,9.3 17.6,3.6 		"/>
            <polygon class="st46" points="17.6,3.6 12,9.3 12.1,9.4 17.7,3.7 		"/>
            <polygon class="st47" points="17.7,3.7 12.1,9.4 12.2,9.4 12.6,9.2 17.9,3.8 		"/>
            <polygon class="st48" points="17.9,3.8 12.6,9.2 13.1,8.8 18,3.9 		"/>
            <polygon class="st49" points="18,3.9 13.1,8.8 13.7,8.5 18.2,4 		"/>
            <polygon class="st50" points="18.2,4 13.7,8.5 14.2,8.2 18.3,4.1 		"/>
            <polygon class="st51" points="18.3,4.1 14.2,8.2 14.8,7.9 18.5,4.2 		"/>
            <polygon class="st52" points="18.5,4.2 14.8,7.9 15.4,7.5 18.6,4.2 		"/>
            <polygon class="st53" points="18.6,4.2 15.4,7.5 15.9,7.2 18.8,4.3 		"/>
            <polygon class="st54" points="18.8,4.3 15.9,7.2 16.5,6.9 18.9,4.4 		"/>
            <polygon class="st55" points="18.9,4.4 16.5,6.9 17,6.6 19.1,4.5 		"/>
            <polygon class="st56" points="19.1,4.5 17,6.6 17.6,6.2 19.2,4.6 		"/>
            <polygon class="st57" points="19.2,4.6 17.6,6.2 18.2,5.9 19.4,4.7 		"/>
            <polygon class="st58" points="19.4,4.7 18.2,5.9 18.7,5.6 19.5,4.8 		"/>
            <polygon class="st59" points="19.5,4.8 18.7,5.6 19.3,5.3 19.7,4.9 		"/>
            <polygon class="st60" points="19.3,5.3 19.8,4.9 19.7,4.9 		"/>
	</g>
        <polygon class="st113" points="27.8,18.7 27.3,17.8 19.8,22.1 13.2,18.2 20.1,14.2 19.6,13.3 12.7,17.4 12.7,9.7 20.1,5.4
		19.6,4.5 12.2,8.8 4.7,4.5 4.2,5.4 11.7,9.7 11.7,17.4 4.7,13.3 4.2,14.2 11.7,18.5 11.7,27.1 12.7,27.1 12.7,19.1 19.3,22.9 
		19.3,31.5 20.3,31.5 20.3,22.9 	"/>
        <g>
		<path class="st114" d="M19.8,32c-0.1,0-0.2,0-0.3-0.1L4.2,23.1C4.1,23,4,22.8,4,22.6V4.9c0-0.2,0.1-0.3,0.2-0.4l7.7-4.4
			c0.2-0.1,0.3-0.1,0.5,0l7.7,4.4c0.2,0.1,0.3,0.3,0.3,0.4v8.6l7.4,4.3c0.2,0.1,0.3,0.3,0.3,0.4v8.8c0,0.2-0.1,0.3-0.3,0.4l-7.7,4.4
			C20,32,19.9,32,19.8,32z M5,22.3l14.9,8.6l7.2-4.2v-8.3l-7.4-4.3c-0.2-0.1-0.3-0.3-0.3-0.4V5.2l-7.2-4.2L5,5.2V22.3z"/>
	</g>
</g>
    <g>
	<rect class="st115" width="32" height="32"/>
</g>
</svg>
