<?xml version="1.0" encoding="utf-8"?>
<!-- Generator: Adobe Illustrator 20.0.0, SVG Export Plug-In . SVG Version: 6.00 Build 0)  -->
<svg xmlns:xlink="http://www.w3.org/1999/xlink" version="1.1" id="Layer_1" xmlns="http://www.w3.org/2000/svg" x="0px"
     y="0px"
     viewBox="0 0 32 32" style="enable-background:new 0 0 32 32;" xml:space="preserve">
<title>JT2GO_Icons_32px_Art_cmdCameraOn32</title>
    <style type="text/css">
	.st0{fill:#ffffff;}
	.st1{fill:none;}
</style>

    <g>
	<g>
		<g>
			<path class="st0" d="M16,27H2.5C1.1,27,0,25.9,0,24.5v-19C0,4.1,1.1,3,2.5,3h27C30.9,3,32,4.1,32,5.5V18h-1V5.5
				C31,4.7,30.3,4,29.5,4h-27C1.7,4,1,4.7,1,5.5v19C1,25.3,1.7,26,2.5,26H16V27z"/>
		</g>
        <g>
			<path class="st0" d="M11.5,22C7.4,22,4,18.6,4,14.5S7.4,7,11.5,7s7.5,3.4,7.5,7.5S15.6,22,11.5,22z M11.5,8C7.9,8,5,10.9,5,14.5
				S7.9,21,11.5,21s6.5-2.9,6.5-6.5S15.1,8,11.5,8z"/>
		</g>
        <g>
			<path class="st0" d="M27.5,10h-3C23.7,10,23,9.3,23,8.5v-1C23,6.7,23.7,6,24.5,6h3C28.3,6,29,6.7,29,7.5v1
				C29,9.3,28.3,10,27.5,10z M24.5,7C24.2,7,24,7.2,24,7.5v1C24,8.8,24.2,9,24.5,9h3C27.8,9,28,8.8,28,8.5v-1C28,7.2,27.8,7,27.5,7
				H24.5z"/>
		</g>
        <g>
			<polygon class="st0" points="10,3.5 9,3.5 9,1 5,1 5,3.5 4,3.5 4,0 10,0 			"/>
		</g>
        <g>
			<path class="st0" d="M24.5,32c-4.1,0-7.5-3.4-7.5-7.5c0-2.7,1.4-5.2,3.8-6.5l0.5,0.9c-2,1.2-3.3,3.3-3.3,5.6
				c0,3.6,2.9,6.5,6.5,6.5s6.5-2.9,6.5-6.5c0-2.3-1.2-4.5-3.2-5.6l0.5-0.9c2.3,1.3,3.7,3.8,3.7,6.5C32,28.6,28.6,32,24.5,32z"/>
		</g>
        <g>
			<rect x="24" y="17" class="st0" width="1" height="8"/>
		</g>
	</g>
        <g>
		<rect y="0" class="st1" width="32" height="32"/>
	</g>
</g>
</svg>
