<svg xmlns:xlink="http://www.w3.org/1999/xlink" version="1.1" id="Artwork" xmlns="http://www.w3.org/2000/svg" x="0px"
     y="0px"
     width="24px" height="24px" viewBox="0 0 24 24" enable-background="new 0 0 24 24" xml:space="preserve">
    
  <path d="M19,23H9V6H19Zm-9-1h8V7H10Z" transform="translate(0.038 0.015)" class="aw-theme-iconOutline" fill="#ffffff"/>
    <rect x="17.041" y="2.978" width="7.922" height="1" transform="translate(4.655 17.083) rotate(-49.077)"
          class="aw-theme-iconOutline" fill="#ffffff"/>
    <polygon points="9.927 6.813 9.171 6.157 14.511 0 23.894 0 23.894 1 14.967 1 9.927 6.813"
             class="aw-theme-iconOutline" fill="#ffffff"/>
    <rect x="23.038" y="0.038" width="1" height="17.975" class="aw-theme-iconOutline" fill="#ffffff"/>
    <rect x="17.299" y="19.452" width="7.406" height="1" transform="translate(-7.912 20.949) rotate(-45.475)"
          class="aw-theme-iconOutline" fill="#ffffff"/>
    <path d="M3.609,15.363l-3.5-3.491a.5.5,0,0,1,0-.707l3.5-3.509.708.706L1.169,11.517l3.146,3.138Z"
          transform="translate(0.038 0.015)" class="aw-theme-iconOutline" fill="#ffffff"/>
    <rect x="1" y="11.03" width="8.445" height="1" class="aw-theme-iconOutline" fill="#ffffff"/>

</svg>
