<svg xmlns:xlink="http://www.w3.org/1999/xlink" version="1.1" id="Artwork" xmlns="http://www.w3.org/2000/svg" x="0px"
     y="0px"
     width="24px" height="24px" viewBox="0 0 24 24" enable-background="new 0 0 24 24" xml:space="preserve">
  <path d="M10,23H0V6H10ZM1,22H9V7H1Z" transform="translate(0 0.015)" fill="#ffffff"/>
    <rect x="8.066" y="2.945" width="7.872" height="1" transform="translate(1.5 10.214) rotate(-48.761)"
          fill="#ffffff"/>
    <polygon points="0.887 6.749 0.135 6.089 5.474 0 14.855 0 14.855 1 5.927 1 0.887 6.749" fill="#ffffff"/>
    <rect x="14" y="0.038" width="1" height="12.049" fill="#ffffff"/>
    <rect x="8.905" y="20.757" width="3.582" height="1" transform="translate(-11.76 13.399) rotate(-43.971)"
          fill="#ffffff"/>
    <path d="M57.907,23h-9.9V5.689h9.9Zm-8.9-1h7.9V6.689h-7.9Z" transform="translate(0 0.015)" fill="#ffffff"/>
    <rect x="56.146" y="2.837" width="7.711" height="1" transform="translate(17.174 45.508) rotate(-47.73)"
          fill="#ffffff"/>
    <polygon points="48.881 6.541 48.141 5.868 53.479 0 62.855 0 62.855 1 53.921 1 48.881 6.541" fill="#ffffff"/>
    <rect x="62" y="0.038" width="1" height="17.975" fill="#ffffff"/>
    <rect x="56.332" y="19.405" width="7.339" height="1" transform="translate(3.499 48.273) rotate(-45)"
          fill="#ffffff"/>
    <path d="M17.5,24a6.5,6.5,0,0,1-4.6-11.092h0A6.5,6.5,0,1,1,17.5,24ZM17.5,12a5.483,5.483,0,0,0-3.89,1.609h0A5.507,5.507,0,1,0,17.5,12Zm-4.244,1.255h0Z"
          transform="translate(0 0.015)" fill="#ffffff"/>
    <rect x="16.999" y="11.502" width="1" height="12" transform="translate(-7.25 17.525) rotate(-45.025)"
          fill="#ffffff"/>
</svg>
