<svg xmlns:xlink="http://www.w3.org/1999/xlink" version="1.1" id="Artwork" xmlns="http://www.w3.org/2000/svg" x="0px"
     y="0px"
     width="24px" height="24px" viewBox="0 0 24 24" enable-background="new 0 0 24 24" xml:space="preserve">
    
  <path d="M10,23H0V6H10ZM1,22H9V7H1Z" transform="translate(0 0.015)" fill="#ffffff"/>
    <rect x="8.051" y="2.966" width="7.903" height="1" transform="translate(1.508 10.258) rotate(-48.962)"
          class="aw-theme-iconOutline" fill="#ffffff"/>
    <polygon points="0.888 6.789 0.134 6.132 5.473 0 14.855 0 14.855 1 5.928 1 0.888 6.789"
             fclass="aw-theme-iconOutline" fill="#ffffff"/>
    <rect x="14" y="0.038" width="1" height="17.975" class="aw-theme-iconOutline" fill="#ffffff"/>
    <rect x="8.291" y="19.464" width="7.423" height="1" transform="translate(-10.662 14.599) rotate(-45.633)"
          class="aw-theme-iconOutline" fill="#ffffff"/>
    <path d="M20.354,15.362l-.708-.707,3.147-3.149L19.646,8.362l.708-.707,3.5,3.5a.5.5,0,0,1,0,.707Z"
          transform="translate(0 0.015)" class="aw-theme-iconOutline" fill="#ffffff"/>
    <rect x="11.024" y="11.015" width="11.976" height="1" class="aw-theme-iconOutline" fill="#ffffff"/>

</svg>
