<?xml version="1.0" encoding="utf-8"?>
<!-- Generator: Adobe Illustrator 19.2.1, SVG Export Plug-In . SVG Version: 6.00 Build 0)  -->
<svg version="1.1" id="Layer_1" xmlns="http://www.w3.org/2000/svg" x="0px"
	 y="0px"
	 viewBox="0 0 24 24" style="enable-background:new 0 0 24 24;" xml:space="preserve">
<style type="text/css">
	.st0{fill:none;}
	.st1{fill:#ffffff;}
	.st2{display:none;}
</style>

    <g id="Layer_1_1_">
	<g>
		<g id="XMLID_16_">
			<g id="XMLID_17_">
				<rect class="st0" width="24" height="24"/>
			</g>
		</g>
	</g>
        <g>
		<path class="st1" d="M12,18.7L7,5.4L2,18.7L1,18.3L6.5,3.8c0.1-0.4,0.8-0.4,0.9,0L13,18.3L12,18.7z"/>
	</g>
        <g>
		<path class="st1" d="M3,19H0.5C0.2,19,0,18.8,0,18.5S0.2,18,0.5,18H3c0.3,0,0.5,0.2,0.5,0.5S3.3,19,3,19z"/>
	</g>
        <g>
		<path class="st1"
              d="M13.5,19H11c-0.3,0-0.5-0.2-0.5-0.5S10.7,18,11,18h2.5c0.3,0,0.5,0.2,0.5,0.5S13.8,19,13.5,19z"/>
	</g>
        <g>
		<path class="st1" d="M23.5,19c-0.3,0-0.5-0.2-0.5-0.5v-7c0-1.2-0.3-2.2-1-2.8c-0.6-0.6-1.4-0.8-2.5-0.7c-1.1,0.1-2.1,0.5-3.3,1.2
			c-0.2,0.1-0.5,0.1-0.7-0.2c-0.1-0.2-0.1-0.5,0.2-0.7c1.3-0.9,2.5-1.3,3.7-1.4c1.3-0.1,2.4,0.2,3.2,1c0.9,0.8,1.3,2,1.3,3.5v7
			C24,18.8,23.8,19,23.5,19z"/>
	</g>
        <g>
		<path class="st1" d="M19,19c-2.2,0-4-1.8-4-4c0-2.3,1.7-4,4-4c2.6,0,4.7,1.2,4.8,1.3l-0.5,0.9c0,0-1.9-1.1-4.2-1.1
			c-1.7,0-3,1.3-3,3c0,1.6,1.4,3,3,3c2.6,0,4-1.6,4-1.6l0.8,0.6C23.7,17.1,22.1,19,19,19z"/>
	</g>
        <g>
		<rect x="3" y="13" class="st1" width="8" height="1"/>
	</g>
</g>
    <g id="Labelas" class="st2">
</g>
</svg>
