<svg id="Layer_2" data-name="Layer 2" xmlns="http://www.w3.org/2000/svg" viewBox="0 0 24 24">
    <path d="M22.4,22.251a.761.761,0,0,1-.5-.208c-.032-.027-.165-.154-.386-.365-3.346-3.191-6.485-6.026-9.332-8.431a48.4,48.4,0,0,0-6.4,6.784c-.82,1.118-1.553,1.883-2.46,1.979A2.094,2.094,0,0,1,1.708,21.4c-1.372-1.22-.437-3.373.25-4.34a31,31,0,0,1,6.624-6.737A55.322,55.322,0,0,0,3.448,6.7,4,4,0,0,1,1.561,4.342a2.053,2.053,0,0,1,.569-1.7C3.41,1.215,5.5,1.831,6.2,2.19a29.205,29.205,0,0,1,6.976,5.15,41.147,41.147,0,0,1,8.816-3.658.7.7,0,0,1,.862.32.7.7,0,0,1-.287.877c-1.046.755-3.742,2.737-6.791,5.258a52.068,52.068,0,0,1,7.116,11.045l-.444.232L22.9,21.2a.731.731,0,0,1-.143.93A.6.6,0,0,1,22.4,22.251ZM4.266,2.752a1.8,1.8,0,0,0-1.392.56A1.06,1.06,0,0,0,2.55,4.2c.1.686.938,1.359,1.416,1.648a58.775,58.775,0,0,1,5.75,4.1l.517.408-.532.388a30.279,30.279,0,0,0-6.927,6.9c-.014.02-1.42,2.108-.4,3.013a1.176,1.176,0,0,0,.849.369c.575-.062,1.211-.831,1.758-1.577a50.549,50.549,0,0,1,6.858-7.227l.323-.29.332.279c2.662,2.234,5.58,4.848,8.689,7.781a51.585,51.585,0,0,0-6.493-9.577l-.334-.385.392-.327c2.2-1.838,4.255-3.416,5.686-4.485A42,42,0,0,0,13.338,8.4l-.33.187-.269-.269a28.477,28.477,0,0,0-7-5.234A3.937,3.937,0,0,0,4.266,2.752ZM22.3,4.634h0Z"
          class="aw-theme-iconOutline" fill="#ffffff"/>
</svg>
