<?xml version="1.0" encoding="utf-8"?>
<!-- Generator: Adobe Illustrator 19.2.1, SVG Export Plug-In . SVG Version: 6.00 Build 0)  -->
<svg version="1.1" id="Layer_1" xmlns="http://www.w3.org/2000/svg" x="0px"
	 y="0px"
	 viewBox="0 0 24 24" style="enable-background:new 0 0 24 24;" xml:space="preserve">
<style type="text/css">
	.st0{fill:none;}
	.st1{fill:#ffffff;}
	.st2{display:none;}
</style>

    <g id="Layer_1_1_">
	<g id="XMLID_2_">
		<g id="XMLID_44_">
			<rect class="st0" width="24" height="24"/>
		</g>
	</g>
        <g>
		<path class="st1" d="M0.6,19.7C0.5,19.7,0.5,19.7,0.6,19.7c-0.3,0-0.6-0.2-0.6-0.5s0.2-0.5,0.5-0.5c2.7,0,4.1-5,5.3-9.4
			C7,5.2,7.9,1.7,10,1.7c1,0,1.7,0.3,2.1,0.9c1.1,1.7-0.4,5.2-2,8.8c-1.2,2.7-2.5,5.8-1.9,6.8c0,0.1,0.2,0.3,0.8,0.3
			c1.2,0,2.4-2.7,3.5-5c1.3-2.9,2.6-5.7,4.5-5.7c0.6,0,1,0.2,1.4,0.6c0.7,0.8,0.4,2.3,0.2,3.9c-0.2,1.2-0.5,2.6-0.1,3
			c0.1,0.1,0.2,0.2,0.5,0.2c0.8,0,1.5-0.8,2.2-1.6c0.7-0.8,1.4-1.5,2.3-1.5c0.3,0,0.5,0.2,0.5,0.5c0,0.3-0.2,0.5-0.5,0.5
			c-0.4,0-1,0.6-1.5,1.2c-0.8,0.9-1.7,1.9-3,1.9c-0.6,0-1-0.2-1.3-0.5c-0.7-0.8-0.4-2.3-0.2-3.9c0.2-1.2,0.5-2.6,0.1-3.1
			c0-0.1-0.2-0.2-0.6-0.2c-1.3,0-2.5,2.7-3.6,5.1c-1.3,2.9-2.5,5.6-4.4,5.6c-0.7,0-1.3-0.2-1.6-0.7c-0.9-1.4,0.4-4.3,1.8-7.7
			c1.3-3.1,2.9-6.6,2-7.9c-0.2-0.3-0.6-0.5-1.3-0.5c-1.3,0-2.3,3.6-3.2,6.9C5.5,14.3,4,19.7,0.6,19.7z"/>
	</g>
</g>
    <g id="Labelas" class="st2">
</g>
</svg>
