<svg version="1.1" id="Artwork" xmlns="http://www.w3.org/2000/svg" x="0px"
     y="0px"
     width="24px" height="24px" viewBox="0 0 24 24" enable-background="new 0 0 24 24" xml:space="preserve">
  <path d="M13.875,10.875a.5.5,0,0,1-.354-.854l8.25-8.25a.5.5,0,0,1,.708.708l-8.25,8.25A.5.5,0,0,1,13.875,10.875Z"
        transform="translate(0 0)" fill="#ffffff"/>
    <path d="M22.125,10.875a.5.5,0,0,1-.354-.146l-8.25-8.25a.5.5,0,0,1,.708-.708l8.25,8.25a.5.5,0,0,1-.354.854Z"
          transform="translate(0 0)" fill="#ffffff"/>
    <rect width="24" height="24" transform="translate(0 24) rotate(-90)" fill="none"/>
    <path d="M12,24H11V22h1Zm0-4H11V18h1Zm0-4H11V14h1Zm0-4H11V10h1Zm0-4H11V6h1Zm0-4H11V2h1Z" transform="translate(0 0)"
          fill="#ffffff"/>
    <path d="M11.5,24a.494.494,0,0,1-.294-.1l-1.295-.942a.5.5,0,0,1,.588-.808l1.3.942a.5.5,0,0,1-.294.9ZM8.587,21.882a.494.494,0,0,1-.294-.1L6.676,20.61a.5.5,0,1,1,.588-.809l1.617,1.177a.5.5,0,0,1-.294.9ZM5.353,19.529a.492.492,0,0,1-.294-.1L3.441,18.257a.5.5,0,0,1,.588-.809l1.617,1.177a.5.5,0,0,1-.293.9ZM2.117,17.176a.5.5,0,0,1-.294-.095L.206,15.9A.5.5,0,1,1,.794,15.1l1.617,1.176a.5.5,0,0,1-.294.9Z"
          transform="translate(0 0)" fill="#ffffff"/>
    <path d="M11.5,24a.5.5,0,0,1-.294-.9l11-8a.5.5,0,1,1,.588.808l-11,8A.494.494,0,0,1,11.5,24Z"
          transform="translate(0 0)" fill="#ffffff"/>
</svg>
