<svg version="1.1" id="Artwork" xmlns="http://www.w3.org/2000/svg" x="0px"
     y="0px"
     width="24px" height="24px" viewBox="0 0 24 24" enable-background="new 0 0 24 24" xml:space="preserve">
  <path d="M18.5,6.125a.5.5,0,0,1-.354-.146L14.021,1.854a.5.5,0,0,1,.708-.708L18.5,4.918l3.771-3.772a.5.5,0,0,1,.708.708L18.854,5.979A.5.5,0,0,1,18.5,6.125Z"
        fill="#ffffff"/>
    <path d="M18.5,10.25a.5.5,0,0,1-.5-.5V5.625a.5.5,0,0,1,1,0V9.75A.5.5,0,0,1,18.5,10.25Z" fill="#ffffff"/>
    <rect width="24" height="24" transform="translate(0 24) rotate(-90)" fill="none"/>
    <rect x="11" y="2" width="1" height="22" fill="#ffffff"/>
    <path d="M11.5,24a.494.494,0,0,1-.294-.1l-1.295-.942a.5.5,0,0,1,.588-.809l1.3.943a.5.5,0,0,1-.294.9ZM8.587,21.882a.494.494,0,0,1-.294-.1L6.676,20.609a.5.5,0,1,1,.588-.808l1.617,1.177a.5.5,0,0,1-.294.9ZM5.353,19.529a.5.5,0,0,1-.294-.095L3.441,18.257a.5.5,0,0,1,.588-.809l1.617,1.177a.5.5,0,0,1-.293.9ZM2.117,17.177a.5.5,0,0,1-.294-.1L.206,15.9A.5.5,0,1,1,.794,15.1l1.617,1.176a.5.5,0,0,1-.294.905Z"
          fill="#ffffff"/>
    <path d="M11.5,24a.5.5,0,0,1-.294-.9l1.617-1.177a.5.5,0,0,1,.588.809L11.794,23.9A.494.494,0,0,1,11.5,24Zm3.235-2.353a.5.5,0,0,1-.294-.9l1.618-1.177a.5.5,0,0,1,.587.809l-1.617,1.177A.5.5,0,0,1,14.735,21.647ZM17.97,19.3a.5.5,0,0,1-.294-.9l1.617-1.177a.5.5,0,0,1,.588.808L18.264,19.2A.5.5,0,0,1,17.97,19.3Zm3.235-2.353a.5.5,0,0,1-.294-.9l1.295-.942a.5.5,0,1,1,.588.808l-1.3.943A.5.5,0,0,1,21.205,16.942Z"
          fill="#ffffff"/>
</svg>
