<svg version="1.1" id="Artwork" xmlns="http://www.w3.org/2000/svg" x="0px"
     y="0px"
     width="24px" height="24px" viewBox="0 0 24 24" enable-background="new 0 0 24 24" xml:space="preserve">
  <path d="M22.5,10h-8a.5.5,0,0,1-.354-.854L21.293,2H14.5a.5.5,0,0,1,0-1h8a.5.5,0,0,1,.354.854L15.707,9H22.5a.5.5,0,0,1,0,1Z"
        transform="translate(0 0)" fill="#ffffff"/>
    <path d="M12,24H11V22h1Zm0-4H11V18h1Zm0-4H11V14h1Zm0-4H11V10h1Zm0-4H11V6h1Zm0-4H11V2h1Z" transform="translate(0 0)"
          fill="#ffffff"/>
    <path d="M11.5,24a.494.494,0,0,1-.294-.1l-11-8A.5.5,0,1,1,.794,15.1l11,8a.5.5,0,0,1-.294.9Z"
          transform="translate(0 0)" fill="#ffffff"/>
    <path d="M11.5,24a.5.5,0,0,1-.294-.9l1.617-1.177a.5.5,0,0,1,.588.809L11.794,23.9A.494.494,0,0,1,11.5,24Zm3.235-2.353a.5.5,0,0,1-.294-.9l1.618-1.177a.5.5,0,0,1,.587.809l-1.617,1.177A.5.5,0,0,1,14.735,21.647ZM17.97,19.3a.5.5,0,0,1-.294-.9l1.617-1.177a.5.5,0,0,1,.588.808L18.264,19.2A.5.5,0,0,1,17.97,19.3Zm3.235-2.353a.5.5,0,0,1-.294-.9l1.295-.942a.5.5,0,1,1,.588.808l-1.3.943A.5.5,0,0,1,21.205,16.942Z"
          transform="translate(0 0)" fill="#ffffff"/>
</svg>
