<?xml version="1.0" encoding="utf-8"?>
<!-- Generator: Adobe Illustrator 20.0.0, SVG Export Plug-In . SVG Version: 6.00 Build 0)  -->
<svg version="1.1" id="Layer_1" xmlns="http://www.w3.org/2000/svg" x="0px"
	 y="0px"
	 viewBox="0 0 32 32" style="enable-background:new 0 0 32 32;" xml:space="preserve">
<title>JT2GO_Icons_32px_Art_cmdPMIFilter32</title>
    <style type="text/css">
	.st0{fill:#ffffff;}
	.st1{fill:none;}
</style>

    <g>
	<g>
		<g>
			<path class="st0" d="M22.5,16.5c-4.6,0-9.5-0.9-9.5-2.8s4.9-2.8,9.5-2.8s9.5,0.9,9.5,2.8S27.1,16.5,22.5,16.5z M22.5,12
				c-5.6,0-8.5,1.2-8.5,1.8s2.9,1.8,8.5,1.8s8.5-1.2,8.5-1.8S28.1,12,22.5,12z"/>
		</g>
        <g>
			<path class="st0" d="M20.5,32c-0.1,0-0.2,0-0.2-0.1c-0.2-0.1-0.3-0.3-0.3-0.4v-7l-6.9-10.4c-0.2-0.2-0.1-0.5,0.1-0.7
				c0.2-0.2,0.5-0.1,0.7,0.1l7,10.5c0.1,0.1,0.1,0.2,0.1,0.3v6.2l3-2v-4.2c0-0.1,0-0.2,0.1-0.3l7-10.5c0.2-0.2,0.5-0.3,0.7-0.1
				c0.2,0.2,0.3,0.5,0.1,0.7L25,24.5v4.3c0,0.2-0.1,0.3-0.2,0.4l-4,2.6C20.7,32,20.6,32,20.5,32z"/>
		</g>
        <g>
			<g>
				<path class="st0" d="M1.5,6C0.7,6,0,5.3,0,4.5S0.7,3,1.5,3S3,3.7,3,4.5S2.3,6,1.5,6z M1.5,4C1.2,4,1,4.2,1,4.5S1.2,5,1.5,5
					S2,4.8,2,4.5S1.8,4,1.5,4z"/>
			</g>
            <g>
				<rect x="2" y="4" class="st0" width="8" height="1"/>
			</g>
            <g>
				<path class="st0" d="M32,9H10V0h22V9z M11,8h20V1H11V8z"/>
			</g>
		</g>
	</g>
        <g>
		<rect class="st1" width="32" height="32"/>
	</g>
</g>
</svg>
