<?xml version="1.0" encoding="utf-8"?>
<!-- Generator: Adobe Illustrator 20.0.0, SVG Export Plug-In . SVG Version: 6.00 Build 0)  -->
<svg version="1.1" xmlns="http://www.w3.org/2000/svg" x="0px" y="0px"
	 viewBox="0 0 32 32" style="enable-background:new 0 0 32 32;" xml:space="preserve">
<title>FitToWindow32</title>
    <style type="text/css">
	.st0{fill:none;}
	.st1{fill:#C8D2D7;stroke:#333333;stroke-miterlimit:10;}
	.st2{fill:#ffffff;}
</style>

    <g id="Artwork">
	<g id="XMLID_80_">
		<g id="XMLID_81_">
			<rect y="0" class="st0" width="32" height="32"/>
		</g>
	</g>
        <g id="XMLID_79_">
		<path class="st1" d="M26.7,13.3"/>
	</g>
        <g id="XMLID_78_">
		<polygon class="st2" points="5,12 4,12 4,4 12,4 12,5 5,5 		"/>
	</g>
        <g id="XMLID_77_">
		<polygon class="st2" points="28,12 27,12 27,5 20,5 20,4 28,4 		"/>
	</g>
        <g id="XMLID_72_">
		<polygon class="st2" points="28,28 20,28 20,27 27,27 27,20 28,20 		"/>
	</g>
        <g id="XMLID_51_">
		<polygon class="st2" points="12,28 4,28 4,20 5,20 5,27 12,27 		"/>
	</g>
        <g>
		<rect x="8.2" y="3" transform="matrix(0.7071 -0.7071 0.7071 0.7071 -3.5901 8.6666)" class="st2" width="1"
              height="11.3"/>
	</g>
        <g>
		<rect x="17.7" y="8.2" transform="matrix(0.7071 -0.7071 0.7071 0.7071 0.7057 19.0378)" class="st2" width="11.3"
              height="1"/>
	</g>
        <g>
		<rect x="22.8" y="17.7" transform="matrix(0.7071 -0.7071 0.7071 0.7071 -9.6647 23.3334)" class="st2" width="1"
              height="11.3"/>
	</g>
        <g>
		<rect x="3" y="22.8" transform="matrix(0.7071 -0.7071 0.7071 0.7071 -13.9606 12.9622)" class="st2" width="11.3"
              height="1"/>
	</g>
        <g id="XMLID_82_">
		<g id="XMLID_85_">
			<path class="st2" d="M32,32H0V0h32V32z M1,31h30V1H1V31z"/>
		</g>
	</g>
</g>
    <g id="Labels">
</g>
</svg>
