<?xml version="1.0" encoding="utf-8"?>
<!-- Generator: Adobe Illustrator 20.0.0, SVG Export Plug-In . SVG Version: 6.00 Build 0)  -->
<svg version="1.1" id="Layer_1" xmlns="http://www.w3.org/2000/svg" x="0px"
	 y="0px"
	 viewBox="0 0 32 32" style="enable-background:new 0 0 32 32;" xml:space="preserve">
<title>JT2GO_Icons_32px_Art_cmdProperties32</title>
    <style type="text/css">
	.st0{fill:none;}
	.st1{fill:#ffffff;}
</style>

    <g>
	<rect x="0" y="0" class="st0" width="32" height="32"/>
</g>
    <g>
	<g>
		<path class="st1" d="M14,26.7l-7.9-7.9c-0.2-0.2-0.2-0.5,0-0.7l7.9-7.9l0.7,0.7l-7.5,7.5l7.5,7.5L14,26.7z"/>
	</g>
        <g>
		<rect x="6.7" y="18" class="st1" width="17.8" height="1"/>
	</g>
</g>
    <g>
	<rect class="st0" width="32" height="32"/>
</g>
    <g>
	<g>
		<path class="st1" d="M32,30H0V4c0-1.1,0.8-2,1.9-2h7.5C10,2,10.6,2.3,11,2.9L13.2,7H32V30z M1,29h30V8H12.6l-2.5-4.6
			C10,3.2,9.7,3,9.4,3H1.9C1.4,3,1,3.4,1,4V29z"/>
	</g>
</g>
</svg>
