<?xml version="1.0" encoding="utf-8"?>
<!-- Generator: Adobe Illustrator 20.0.0, SVG Export Plug-In . SVG Version: 6.00 Build 0)  -->
<svg version="1.1" id="Layer_1" xmlns="http://www.w3.org/2000/svg" x="0px"
	 y="0px"
	 viewBox="0 0 32 32" style="enable-background:new 0 0 32 32;" xml:space="preserve">
<title>JT2GO_Icons_32px_Art_cmdHidePMI32</title>
    <style type="text/css">
	.st0{fill:#ffffff;}
	.st1{fill:none;}
</style>

    <g>
	<g>
		<g>
			<path class="st0" d="M17.4,25c-0.2,0-0.4-0.1-0.5-0.3c-0.2-0.5-0.3-1.1-0.3-1.7c0-2.4,2-4.4,4.4-4.4c0.4,0,0.7,0,1.1,0.1
				c0.3,0.1,0.4,0.3,0.4,0.6c-0.1,0.3-0.3,0.4-0.6,0.4c-0.3-0.1-0.6-0.1-0.8-0.1c-1.9,0-3.4,1.5-3.4,3.4c0,0.4,0.1,0.9,0.3,1.3
				c0.1,0.3,0,0.5-0.3,0.7C17.5,25,17.5,25,17.4,25z"/>
		</g>
        <g>
			<path class="st0" d="M21,27.4c-0.5,0-1-0.1-1.5-0.3c-0.3-0.1-0.4-0.4-0.3-0.6s0.4-0.4,0.6-0.3c0.4,0.1,0.7,0.2,1.1,0.2
				c1.9,0,3.4-1.5,3.4-3.4c0-0.4-0.1-0.8-0.2-1.1c-0.1-0.3,0-0.5,0.3-0.6c0.3-0.1,0.5,0,0.6,0.3c0.2,0.5,0.2,1,0.2,1.5
				C25.4,25.4,23.4,27.4,21,27.4z"/>
		</g>
        <g>
			<path class="st0" d="M21,30.7c-1.3,0-2.6-0.2-3.8-0.7c-0.3-0.1-0.4-0.4-0.3-0.6c0.1-0.3,0.4-0.4,0.6-0.3c1.1,0.4,2.3,0.6,3.5,0.6
				c4.1,0,7.8-2.5,10-6.6c0-0.1,0-0.2,0-0.2c-0.8-1.6-1.9-2.9-3.2-4c-0.2-0.2-0.2-0.5-0.1-0.7c0.2-0.2,0.5-0.2,0.7-0.1
				c1.4,1.2,2.5,2.6,3.4,4.3c0.2,0.4,0.2,0.8,0,1.2C29.5,28,25.5,30.7,21,30.7z"/>
		</g>
        <g>
			<path class="st0" d="M13.9,28c-0.1,0-0.2,0-0.3-0.1c-1.4-1.2-2.5-2.6-3.4-4.3c-0.2-0.4-0.2-0.8,0-1.2c2.3-4.5,6.4-7.1,10.9-7.1
				c1.3,0,2.5,0.2,3.7,0.7c0.3,0.1,0.4,0.4,0.3,0.6s-0.4,0.4-0.6,0.3c-1.1-0.4-2.2-0.6-3.4-0.6c-4.1,0-7.8,2.5-10,6.6
				c0,0.1,0,0.2,0,0.2c0.8,1.6,1.9,2.9,3.2,4c0.2,0.2,0.2,0.5,0.1,0.7C14.2,27.9,14,28,13.9,28z"/>
		</g>
        <g>
			<path class="st0" d="M12.7,31.8c-0.1,0-0.3,0-0.4-0.1c-0.2-0.2-0.2-0.5,0-0.7l16.6-16.6c0.2-0.2,0.5-0.2,0.7,0s0.2,0.5,0,0.7
				L13.1,31.6C13,31.7,12.8,31.8,12.7,31.8z"/>
		</g>
        <g>
			<path class="st0" d="M1.5,9C0.7,9,0,8.3,0,7.5S0.7,6,1.5,6S3,6.7,3,7.5S2.3,9,1.5,9z M1.5,7C1.2,7,1,7.2,1,7.5S1.2,8,1.5,8
				S2,7.8,2,7.5S1.8,7,1.5,7z"/>
		</g>
        <g>
			<rect x="2" y="7" class="st0" width="8" height="1"/>
		</g>
        <g>
			<path class="st0" d="M32,13H10V2h22V13z M11,12h20V3H11V12z"/>
		</g>
	</g>
        <g>
		<rect x="0" y="0" class="st1" width="32" height="32"/>
	</g>
</g>
</svg>
