<?xml version="1.0" encoding="utf-8"?>
<!-- Generator: Adobe Illustrator 20.0.0, SVG Export Plug-In . SVG Version: 6.00 Build 0)  -->
<svg version="1.1" id="Layer_1" xmlns="http://www.w3.org/2000/svg" x="0px"
	 y="0px"
	 viewBox="0 0 32 32" style="enable-background:new 0 0 32 32;" xml:space="preserve">
<title>JT2GO_Icons_32px_Art_cmdHide32</title>
    <style type="text/css">
	.st0{fill:#ffffff;}
	.st1{fill:none;}
</style>

    <g>
	<g>
		<g>
			<rect x="-5.2" y="15.5" transform="matrix(0.7071 -0.7071 0.7071 0.7071 -6.6274 16)" class="st0" width="42.4"
                  height="1"/>
		</g>
        <g>
			<path class="st0" d="M6.1,22.8c-0.1,0-0.2,0-0.3-0.1c-2.2-1.7-4.1-3.9-5.5-6.5c-0.2-0.4-0.2-1,0-1.4C3.6,8.7,9.3,5,15.5,5
				c2.2,0,4.3,0.5,6.4,1.4c0.3,0.1,0.4,0.4,0.3,0.7c-0.1,0.3-0.4,0.4-0.7,0.3c-1.9-0.8-3.9-1.3-6-1.3C9.6,6,4.3,9.5,1.2,15.3
				c-0.1,0.1-0.1,0.3,0,0.5c1.3,2.5,3.1,4.6,5.3,6.2c0.2,0.2,0.3,0.5,0.1,0.7C6.4,22.8,6.3,22.8,6.1,22.8z"/>
		</g>
        <g>
			<path class="st0" d="M15.5,26c-1.6,0-3.3-0.3-4.9-0.8c-0.3-0.1-0.4-0.4-0.3-0.6c0.1-0.3,0.4-0.4,0.6-0.3c1.5,0.5,3,0.7,4.6,0.7
				c5.9,0,11.2-3.5,14.3-9.3c0.1-0.1,0.1-0.3,0-0.5c-1.1-2.1-2.5-3.8-4.2-5.3c-0.2-0.2-0.2-0.5,0-0.7c0.2-0.2,0.5-0.2,0.7,0
				c1.8,1.5,3.2,3.4,4.4,5.6c0.2,0.4,0.2,1,0,1.4C27.4,22.3,21.7,26,15.5,26z"/>
		</g>
        <g>
			<path class="st0" d="M10.2,18.8c-0.2,0-0.4-0.1-0.4-0.3c-0.5-0.9-0.7-2-0.7-3C9,11.9,11.9,9,15.5,9c1.1,0,2.1,0.2,3,0.7
				c0.2,0.1,0.3,0.4,0.2,0.7c-0.1,0.2-0.4,0.3-0.7,0.2c-0.8-0.4-1.7-0.6-2.5-0.6c-3,0-5.5,2.5-5.5,5.5c0,0.9,0.2,1.8,0.6,2.5
				c0.1,0.2,0,0.5-0.2,0.7C10.3,18.8,10.3,18.8,10.2,18.8z"/>
		</g>
        <g>
			<path class="st0" d="M15.5,22c-0.4,0-0.9-0.1-1.4-0.2c-0.3-0.1-0.4-0.3-0.4-0.6c0.1-0.3,0.3-0.4,0.6-0.4c0.4,0.1,0.8,0.1,1.2,0.1
				c3,0,5.5-2.5,5.5-5.5c0-0.4,0-0.8-0.1-1.2c-0.1-0.3,0.1-0.5,0.4-0.6c0.3-0.1,0.5,0.1,0.6,0.4c0.1,0.5,0.2,1,0.2,1.4
				C22,19.1,19.1,22,15.5,22z"/>
		</g>
	</g>
        <g>
		<rect x="0" y="0" class="st1" width="32" height="32"/>
	</g>
</g>
</svg>
