<?xml version="1.0" encoding="utf-8"?>
<!-- Generator: Adobe Illustrator 20.0.0, SVG Export Plug-In . SVG Version: 6.00 Build 0)  -->
<svg version="1.1" id="Layer_1" xmlns="http://www.w3.org/2000/svg" x="0px"
	 y="0px"
	 viewBox="0 0 32 32" style="enable-background:new 0 0 32 32;" xml:space="preserve">
<title>JT2GO_Icons_32px_Art_cmdHideAllPMI32</title>
    <style type="text/css">
	.st0{fill:#ffffff;}
	.st1{fill:none;}
</style>

    <g>
	<g>
		<g>
			<path class="st0" d="M18.8,25.8c-0.2,0-0.4-0.1-0.5-0.3C18.1,25,18,24.5,18,24c0-2.2,1.8-4,4-4c0.3,0,0.7,0,1,0.1
				c0.3,0.1,0.4,0.3,0.4,0.6c-0.1,0.3-0.3,0.4-0.6,0.4C22.5,21,22.3,21,22,21c-1.7,0-3,1.3-3,3c0,0.4,0.1,0.8,0.2,1.1
				c0.1,0.3,0,0.5-0.3,0.7C18.9,25.8,18.8,25.8,18.8,25.8z"/>
		</g>
        <g>
			<path class="st0" d="M22,28c-0.5,0-0.9-0.1-1.3-0.2c-0.3-0.1-0.4-0.4-0.3-0.6c0.1-0.3,0.4-0.4,0.6-0.3c0.3,0.1,0.7,0.2,1,0.2
				c1.7,0,3-1.3,3-3c0-0.3-0.1-0.7-0.2-1c-0.1-0.3,0-0.5,0.3-0.6c0.3-0.1,0.5,0,0.6,0.3c0.2,0.4,0.2,0.9,0.2,1.3
				C26,26.2,24.2,28,22,28z"/>
		</g>
        <g>
			<path class="st0" d="M22,31c-1.2,0-2.4-0.2-3.5-0.6c-0.3-0.1-0.4-0.4-0.3-0.6c0.1-0.3,0.4-0.4,0.6-0.3c1,0.4,2.1,0.6,3.1,0.6
				c3.7,0,7-2.2,9-5.9c0,0,0-0.1,0-0.2c-0.7-1.4-1.7-2.6-2.8-3.6c-0.2-0.2-0.2-0.5-0.1-0.7c0.2-0.2,0.5-0.2,0.7-0.1
				c1.2,1.1,2.3,2.4,3.1,3.9c0.2,0.3,0.2,0.7,0,1.1C29.7,28.6,26,31,22,31z"/>
		</g>
        <g>
			<path class="st0" d="M15.5,28.6c-0.1,0-0.2,0-0.3-0.1c-1.2-1.1-2.3-2.4-3.1-3.9c-0.2-0.3-0.2-0.7,0-1.1c2.1-4,5.8-6.5,9.9-6.5
				c1.2,0,2.3,0.2,3.4,0.6c0.3,0.1,0.4,0.4,0.3,0.6c-0.1,0.3-0.4,0.4-0.6,0.3c-1-0.4-2-0.5-3.1-0.5c-3.7,0-7,2.2-9,5.9
				c0,0,0,0.1,0,0.2c0.7,1.4,1.7,2.6,2.9,3.6c0.2,0.2,0.2,0.5,0.1,0.7C15.8,28.5,15.7,28.6,15.5,28.6z"/>
		</g>
        <g>
			<path class="st0" d="M1.5,17C0.7,17,0,16.3,0,15.5S0.7,14,1.5,14S3,14.7,3,15.5S2.3,17,1.5,17z M1.5,15C1.2,15,1,15.2,1,15.5
				S1.2,16,1.5,16S2,15.8,2,15.5S1.8,15,1.5,15z"/>
		</g>
        <g>
			<rect x="2" y="15" class="st0" width="9" height="1"/>
		</g>
        <g>
			<polygon class="st0"
                     points="32,20 30,20 30,19 31,19 31,12 12,12 12,19 14,19 14,20 11,20 11,11 32,11 			"/>
		</g>
        <g>
			<path class="st0" d="M1.5,6C0.7,6,0,5.3,0,4.5S0.7,3,1.5,3S3,3.7,3,4.5S2.3,6,1.5,6z M1.5,4C1.2,4,1,4.2,1,4.5S1.2,5,1.5,5
				S2,4.8,2,4.5S1.8,4,1.5,4z"/>
		</g>
        <g>
			<rect x="2" y="4" class="st0" width="9" height="1"/>
		</g>
        <g>
			<path class="st0" d="M32,9H11V0h21V9z M12,8h19V1H12V8z"/>
		</g>
        <g>
			<path class="st0" d="M14.5,32c-0.1,0-0.3,0-0.4-0.1c-0.2-0.2-0.2-0.5,0-0.7l15-15c0.2-0.2,0.5-0.2,0.7,0s0.2,0.5,0,0.7l-15,15
				C14.8,32,14.6,32,14.5,32z"/>
		</g>
	</g>
        <g>
		<rect x="0" y="0" class="st1" width="32" height="32"/>
	</g>
</g>
</svg>
