<?xml version="1.0" encoding="utf-8"?>
<!-- Generator: Adobe Illustrator 20.0.0, SVG Export Plug-In . SVG Version: 6.00 Build 0)  -->
<svg version="1.1" id="Layer_1" xmlns="http://www.w3.org/2000/svg" x="0px"
	 y="0px"
	 viewBox="0 0 32 32" style="enable-background:new 0 0 32 32;" xml:space="preserve">
<title>JT2GO_Icons_32px_Art_cmdModelview32</title>
    <style type="text/css">
	.st0{fill:#ffffff;}
	.st1{fill:none;}
</style>

    <g>
	<g>
		<g>
			<rect x="21" y="10" class="st0" width="1" height="9"/>
		</g>
        <g>
			<polygon class="st0" points="21.5,10.8 13.3,6 13.7,5.2 21.5,9.6 29.3,5.2 29.7,6 			"/>
		</g>
        <g>
			<path class="st0"
                  d="M21.5,19.9L13,15V5.3l8.5-4.9L30,5.3V15L21.5,19.9z M14,14.5l7.5,4.3l7.5-4.3V5.9l-7.5-4.3L14,5.9V14.5z"/>
		</g>
        <g>
			<path class="st0" d="M4.5,32c-0.1,0-0.3,0-0.4-0.1l-4-4c-0.2-0.2-0.2-0.5,0-0.7l5-5c0.2-0.2,0.5-0.2,0.7,0l4,4
				c0.2,0.2,0.2,0.5,0,0.7l-5,5C4.8,32,4.6,32,4.5,32z M1.2,27.5l3.3,3.3l4.3-4.3l-3.3-3.3L1.2,27.5z"/>
		</g>
        <g>
			<path class="st0" d="M13.5,24L13.5,24l-5,0c-0.1,0-0.3-0.1-0.4-0.1S8,23.6,8,23.5l0-5c0-0.2,0.1-0.4,0.3-0.5
				c0.2-0.1,0.4,0,0.5,0.1l5,5c0.1,0.1,0.2,0.4,0.1,0.5C13.9,23.9,13.7,24,13.5,24z M9,23l3.3,0L9,19.7L9,23z"/>
		</g>
        <g>
			<rect x="9" y="2" class="st0" width="1" height="14"/>
		</g>
        <g>
			<rect x="16" y="22" class="st0" width="14" height="1"/>
		</g>
	</g>
        <g id="XMLID_7_">
		<rect y="0" transform="matrix(-1 -1.224647e-16 1.224647e-16 -1 32 32)" class="st1" width="32" height="32"/>
	</g>
</g>
</svg>
