<?xml version="1.0" encoding="utf-8"?>
<!-- Generator: Adobe Illustrator 20.0.0, SVG Export Plug-In . SVG Version: 6.00 Build 0)  -->
<svg version="1.1" id="Layer_1" xmlns="http://www.w3.org/2000/svg" x="0px"
	 y="0px"
	 viewBox="0 0 32 32" style="enable-background:new 0 0 32 32;" xml:space="preserve">
<title>JT2GO_Icons_32px_Art_cmdOpen32</title>
    <style type="text/css">
	.st0{fill:#ffffff;}
	.st1{fill:none;}
</style>

    <g>
	<g>
		<g>
			<polygon class="st0" points="24,32 0,32 0,8 8,8 8,9 1,9 1,31 23,31 23,20 24,20 			"/>
		</g>
        <g>
			<polygon class="st0" points="22.9,16.9 22.1,16.1 29.8,8.5 22.1,0.9 22.9,0.1 31.2,8.5 			"/>
		</g>
        <g>
			<path class="st0" d="M15.6,25.5c-3.4-1.4-5.6-4.7-5.6-8.4c0-5,4.1-9.1,9.1-9.1h11.4v1H19.1c-4.5,0-8.1,3.6-8.1,8.1
				c0,3.3,2,6.2,5,7.5L15.6,25.5z"/>
		</g>
	</g>
        <g id="XMLID_4456_">
		<rect y="0" class="st1" width="32" height="32"/>
	</g>
</g>
</svg>
