<?xml version="1.0" encoding="utf-8"?>
<!-- Generator: Adobe Illustrator 20.0.0, SVG Export Plug-In . SVG Version: 6.00 Build 0)  -->
<svg version="1.1" id="Layer_1" xmlns="http://www.w3.org/2000/svg" x="0px"
	 y="0px"
	 viewBox="0 0 32 32" style="enable-background:new 0 0 32 32;" xml:space="preserve">
<title>JT2GO_Icons_32px_Art_cmdOrientTo32</title>
    <style type="text/css">
	.st0{fill:none;}
	.st1{fill:#ffffff;}
</style>

    <g>
	<g>
		<rect y="0" class="st0" width="32" height="32"/>
	</g>
        <g>
		<g>
			<path class="st1" d="M26.2,30.7c-1.9,0-4.6-1-7.7-2.9l0.5-0.9c4.3,2.6,7.7,3.4,9,2.1c2.1-2.2-0.9-10-8.8-18.2C13.6,5,7.3,1,3.6,1
				c-0.9,0-1.5,0.2-2,0.7c-2.1,2.2,1,10.1,8.9,18.3l1.8,1.8l-0.7,0.7l-1.8-1.8C2,12.6-1.9,3.9,0.9,1c0.6-0.7,1.5-1,2.7-1
				C7.5,0,14.1,4.1,20,10.1c7.8,8.1,11.7,16.7,8.8,19.6C28.2,30.4,27.3,30.7,26.2,30.7z"/>
		</g>
            <g>
			<polygon class="st1" points="13,23 6.5,23 6.5,22 12,22 12,17 13,17 			"/>
		</g>
            <g>
			<polygon class="st1" points="15,13 9,13 9,7 10,7 10,12 15,12 			"/>
		</g>
            <g>
			<path class="st1" d="M4.8,31L4.8,31c-1.1,0-1.9-0.3-2.5-0.9c-1.7-1.7-1-5.7,1.8-10.4l0.9,0.5c-2.5,4.1-3.3,7.8-2,9.1
				c0.4,0.4,1,0.6,1.7,0.6c3.6,0,10-4.1,15.7-10c7.6-7.9,11-16.1,8.9-18.3c-0.4-0.4-1-0.6-1.8-0.6c-3.7,0-10.2,4-15.8,9.8l-1.9,1.9
				l-0.7-0.7l1.9-1.9C16.9,4.2,23.5,0.1,27.6,0.1c0,0,0,0,0,0c1.1,0,2,0.3,2.5,0.9c2.7,2.8-1.3,11.9-8.9,19.7
				C15.3,26.9,8.7,31,4.8,31z"/>
		</g>
	</g>
</g>
</svg>
