<?xml version="1.0" encoding="utf-8"?>
<!-- Generator: Adobe Illustrator 20.0.0, SVG Export Plug-In . SVG Version: 6.00 Build 0)  -->
<svg version="1.1" id="Layer_1" xmlns="http://www.w3.org/2000/svg" x="0px"
	 y="0px"
	 viewBox="0 0 32 32" style="enable-background:new 0 0 32 32;" xml:space="preserve">
<title>JT2GO_Icons_32px_Art_cmdOrientToY32-1</title>
    <style type="text/css">
	.st0{fill:none;}
	.st1{fill:#ffffff;}
</style>

    <g>
	<g>
		<rect y="0" class="st0" width="32" height="32"/>
	</g>
        <g>
		<g>
			<path class="st1" d="M9.7,32c-2,0-3.7-2.5-4.8-6.9l-0.1-0.5l1-0.2l0.1,0.5C6.8,28.7,8.3,31,9.7,31c2.4,0,5.1-6.1,5.3-15.1
				c0.1-6.4-1.2-12.2-3.3-14.2c-0.5-0.5-1-0.7-1.5-0.7C7.9,1,5.2,7.2,5,16.2l0,1.9l-1,0l0-1.9C4.2,7.2,6.9,0.1,10.3,0
				c0.8,0,1.5,0.3,2.2,1c2.3,2.3,3.7,8.1,3.5,14.9C15.8,24.9,13.1,31.9,9.7,32C9.7,32,9.7,32,9.7,32z"/>
		</g>
            <g>
			<polygon class="st1" points="4.5,19.2 0.6,15.4 1.4,14.6 4.5,17.8 7.6,14.6 8.4,15.4 			"/>
		</g>
            <g>
			<path class="st1" d="M24.5,8c-0.1,0-0.3,0-0.4-0.1l-5.5-5.5c-0.2-0.2-0.2-0.5,0-0.7s0.5-0.2,0.7,0l5.1,5.1l5.1-5.1
				c0.2-0.2,0.5-0.2,0.7,0s0.2,0.5,0,0.7l-5.5,5.5C24.8,8,24.6,8,24.5,8z"/>
		</g>
            <g>
			<path class="st1" d="M24.5,13.5c-0.3,0-0.5-0.2-0.5-0.5V7.5C24,7.2,24.2,7,24.5,7S25,7.2,25,7.5V13C25,13.3,24.8,13.5,24.5,13.5z
				"/>
		</g>
	</g>
</g>
</svg>
