<?xml version="1.0" encoding="utf-8"?>
<!-- Generator: Adobe Illustrator 20.0.0, SVG Export Plug-In . SVG Version: 6.00 Build 0)  -->
<svg version="1.1" id="Layer_1" xmlns="http://www.w3.org/2000/svg" x="0px"
	 y="0px"
	 viewBox="0 0 32 32" style="enable-background:new 0 0 32 32;" xml:space="preserve">
<title>JT2GO_Icons_32px_Art_cmdOrientToZ32-1</title>
    <style type="text/css">
	.st0{fill:none;}
	.st1{fill:#ffffff;}
</style>

    <g>
	<g>
		<rect y="0" transform="matrix(6.123234e-17 -1 1 6.123234e-17 -1.973149e-08 32)" class="st0" width="32"
              height="32"/>
	</g>
        <g>
		<g>
			<path class="st1" d="M21.1,31.8c-1.6,0-3.7-0.8-6.2-2.3l-0.4-0.3l0.5-0.8l0.4,0.3c3.4,2.1,6.1,2.7,7.1,1.7
				c1.7-1.7-0.8-7.9-7.1-14.4C10.9,11.2,5.9,8,3,8c0,0,0,0,0,0C2.3,8,1.8,8.2,1.5,8.5c-1.6,1.7,0.9,8.1,7.2,14.5l1.3,1.3l-0.7,0.7
				l-1.3-1.3C2.4,18-1.8,10.5,0.8,7.8C1.3,7.3,2,7,3,7h0c3.2,0,8.4,3.2,13.2,8.2c6.3,6.5,9.4,13.4,7.1,15.8
				C22.7,31.5,22,31.8,21.1,31.8z"/>
		</g>
            <g>
			<polygon class="st1" points="10,25 5,25 5,24 9,24 9,20 10,20 			"/>
		</g>
            <g>
			<path class="st1" d="M30,13H19c-0.2,0-0.4-0.1-0.5-0.3c-0.1-0.2,0-0.4,0.1-0.5L28.8,2H19c-0.3,0-0.5-0.2-0.5-0.5S18.7,1,19,1h11
				c0.2,0,0.4,0.1,0.5,0.3c0.1,0.2,0,0.4-0.1,0.5L20.2,12H30c0.3,0,0.5,0.2,0.5,0.5S30.3,13,30,13z"/>
		</g>
	</g>
</g>
</svg>
