<?xml version="1.0" encoding="utf-8"?>
<!-- Generator: Adobe Illustrator 20.0.0, SVG Export Plug-In . SVG Version: 6.00 Build 0)  -->
<svg version="1.1" id="Layer_1" xmlns="http://www.w3.org/2000/svg" x="0px"
	 y="0px"
	 viewBox="0 0 32 32" style="enable-background:new 0 0 32 32;" xml:space="preserve">
<title>JT2GO_Icons_32px_Art_cmdOrientToX32-1</title>
    <style type="text/css">
	.st0{fill:#ffffff;}
	.st1{fill:none;}
</style>

    <g>
	<g>
		<g>
			<path class="st0" d="M18,28l-1.9,0c-9-0.2-16.1-2.9-16.2-6.2c0-0.8,0.3-1.5,1-2.2c2.3-2.3,8.1-3.6,14.9-3.5
				c9,0.2,16,2.9,16.1,6.2c0,2-2.5,3.8-6.9,4.8l-0.5,0.1l-0.2-1l0.5-0.1c3.8-0.9,6.2-2.4,6.2-3.8c0-2.4-6.1-5.1-15.1-5.3
				c-6.4-0.1-12.2,1.2-14.2,3.3c-0.5,0.5-0.7,1-0.7,1.5c0,2.4,6.2,5.1,15.2,5.3l1.9,0L18,28z"/>
		</g>
        <g>
			<polygon class="st0" points="15.4,31.4 14.6,30.6 17.8,27.5 14.6,24.4 15.4,23.6 19.2,27.5 			"/>
		</g>
        <g>
			<path class="st0" d="M18.5,13c-0.1,0-0.3,0-0.4-0.1c-0.2-0.2-0.2-0.5,0-0.7l11-11c0.2-0.2,0.5-0.2,0.7,0s0.2,0.5,0,0.7l-11,11
				C18.8,13,18.6,13,18.5,13z"/>
		</g>
        <g>
			<path class="st0" d="M29.5,13c-0.1,0-0.3,0-0.4-0.1l-11-11c-0.2-0.2-0.2-0.5,0-0.7s0.5-0.2,0.7,0l11,11c0.2,0.2,0.2,0.5,0,0.7
				C29.8,13,29.6,13,29.5,13z"/>
		</g>
	</g>
        <g>
		<rect x="0" y="0" transform="matrix(4.487794e-11 -1 1 4.487794e-11 -2.942360e-05 32)" class="st1" width="32"
              height="32"/>
	</g>
</g>
</svg>
