<?xml version="1.0" encoding="utf-8"?>
<!-- Generator: Adobe Illustrator 20.0.0, SVG Export Plug-In . SVG Version: 6.00 Build 0)  -->
<svg version="1.1" id="Layer_1" xmlns="http://www.w3.org/2000/svg" x="0px"
	 y="0px"
	 viewBox="0 0 32 32" style="enable-background:new 0 0 32 32;" xml:space="preserve">
<title>JT2GO_Icons_32px_Art_cmdPart32</title>
    <style type="text/css">
	.st0{fill:none;}
	.st1{fill:#464646;}
</style>

    <g>
	<g id="XMLID_55_">
		<rect class="st0" width="32" height="32"/>
	</g>
        <g>
		<g>
			<rect x="15" y="15.4" class="st1" width="1" height="15.2"/>
		</g>
            <g>
			<polygon class="st1" points="15.5,16.1 2.3,8.4 2.8,7.5 15.5,14.9 28.3,7.5 28.8,8.4 			"/>
		</g>
            <g>
			<path class="st1" d="M15.5,30.9c-0.2,0-0.3,0-0.5-0.1L2,23.2V7.7l13.1-7.6h0c0.2-0.1,0.6-0.1,0.8,0L29,7.7v15.5l-13,7.5
				C15.8,30.8,15.7,30.9,15.5,30.9z M3,22.6l12.5,7.2L28,22.6V8.3L15.5,1L3,8.3V22.6z"/>
		</g>
	</g>
</g>
</svg>
