<?xml version="1.0" encoding="utf-8"?>
<!-- Generator: Adobe Illustrator 19.2.1, SVG Export Plug-In . SVG Version: 6.00 Build 0)  -->
<svg version="1.1" id="Layer_1" xmlns="http://www.w3.org/2000/svg" x="0px"
     y="0px"
     viewBox="0 0 32 32" style="enable-background:new 0 0 32 32;" xml:space="preserve">
<style type="text/css">
	.st0{fill:#FFFFFF;}
	.st1{fill:#FEFEFE;}
	.st2{fill:#FDFDFD;}
	.st3{fill:#FCFCFC;}
	.st4{fill:#FBFBFB;}
	.st5{fill:#FAFAFA;}
	.st6{fill:#F9F9F9;}
	.st7{fill:#F8F8F8;}
	.st8{fill:#F7F7F7;}
	.st9{fill:#F6F6F6;}
	.st10{fill:#F5F5F5;}
	.st11{fill:#F4F4F4;}
	.st12{fill:#F3F3F3;}
	.st13{fill:#F2F2F2;}
	.st14{fill:#F1F1F1;}
	.st15{fill:#F0F0F0;}
	.st16{fill:#EFEFEF;}
	.st17{fill:#EEEEEE;}
	.st18{fill:#EDEDED;}
	.st19{fill:#ECECEC;}
	.st20{fill:#EBEBEB;}
	.st21{fill:#EAEAEA;}
	.st22{fill:#E9E9E9;}
	.st23{fill:#E8E8E8;}
	.st24{fill:#E7E7E7;}
	.st25{fill:#E6E6E6;}
	.st26{fill:#E5E5E5;}
	.st27{fill:#E3E3E3;}
	.st28{fill:#E2E2E2;}
	.st29{fill:#E1E1E1;}
	.st30{fill:#E0E0E0;}
	.st31{fill:#DFDFDF;}
	.st32{fill:#DDDDDD;}
	.st33{fill:#DCDCDC;}
	.st34{fill:#DBDBDB;}
	.st35{fill:#DADADA;}
	.st36{fill:#D9D9D9;}
	.st37{fill:#D7D7D7;}
	.st38{fill:#D6D6D6;}
	.st39{fill:#D5D5D5;}
	.st40{fill:#D3D3D3;}
	.st41{fill:#D2D2D2;}
	.st42{fill:#D1D1D1;}
	.st43{fill:#CFCFCF;}
	.st44{fill:#CECECE;}
	.st45{fill:#CDCDCD;}
	.st46{fill:#CBCBCB;}
	.st47{fill:#CACACA;}
	.st48{fill:#C8C8C8;}
	.st49{fill:#C7C7C7;}
	.st50{fill:#C5C5C5;}
	.st51{fill:#C4C4C4;}
	.st52{fill:#C2C2C2;}
	.st53{fill:#C1C1C1;}
	.st54{fill:#C0C0C0;}
	.st55{fill:#BEBEBE;}
	.st56{fill:#E4E4E4;}
	.st57{fill:#DEDEDE;}
	.st58{fill:#D8D8D8;}
	.st59{fill:#D4D4D4;}
	.st60{fill:#D0D0D0;}
	.st61{fill:#CCCCCC;}
	.st62{fill:#C9C9C9;}
	.st63{fill:#C6C6C6;}
	.st64{fill:#C3C3C3;}
	.st65{fill:#BFBFBF;}
	.st66{fill:#BDBDBD;}
	.st67{fill:#BCBCBC;}
	.st68{fill:#BBBBBB;}
	.st69{fill:#BABABA;}
	.st70{fill:#B9B9B9;}
	.st71{fill:#B7B7B7;}
	.st72{fill:#B6B6B6;}
	.st73{fill:#B5B5B5;}
	.st74{fill:#B4B4B4;}
	.st75{fill:#B2B2B2;}
	.st76{fill:#B1B1B1;}
	.st77{fill:#B0B0B0;}
	.st78{fill:#AEAEAE;}
	.st79{fill:#ADADAD;}
	.st80{fill:#ABABAB;}
	.st81{fill:#AAAAAA;}
	.st82{fill:#A8A8A8;}
	.st83{fill:#A7A7A7;}
	.st84{fill:#A5A5A5;}
	.st85{fill:#A3A3A3;}
	.st86{fill:#A2A2A2;}
	.st87{fill:#A0A0A0;}
	.st88{fill:#9E9E9E;}
	.st89{fill:#9D9D9D;}
	.st90{fill:#9B9B9B;}
	.st91{fill:#999999;}
	.st92{fill:#888888;}
	.st93{fill:#6E6E6E;}
	.st94{fill:#ffffff;}
	.st95{fill:none;}
</style>

    <g>
	<g>
		<polygon class="st0" points="3.5,7.2 2.6,7.7 2.8,7.9 		"/>
        <polygon class="st0" points="3.5,7.2 2.8,7.9 3.1,8.1 4.4,6.7 		"/>
        <polygon class="st0" points="4.4,6.7 3.1,8.1 3.4,8.2 5.4,6.2 		"/>
        <polygon class="st1" points="5.4,6.2 3.4,8.2 3.6,8.4 6.3,5.7 		"/>
        <polygon class="st1" points="6.3,5.7 3.6,8.4 3.9,8.6 7.2,5.2 		"/>
        <polygon class="st1" points="7.2,5.2 3.9,8.6 4.2,8.7 8.1,4.7 		"/>
        <polygon class="st2" points="8.1,4.7 4.2,8.7 4.4,8.9 9.1,4.2 		"/>
        <polygon class="st2" points="9.1,4.2 4.4,8.9 4.7,9 10,3.7 		"/>
        <polygon class="st3" points="10,3.7 4.7,9 5,9.2 10.9,3.2 		"/>
        <polygon class="st4" points="10.9,3.2 5,9.2 5.2,9.4 11.9,2.7 		"/>
        <polygon class="st4" points="11.9,2.7 5.2,9.4 5.5,9.5 12.8,2.2 		"/>
        <polygon class="st5" points="12.8,2.2 5.5,9.5 5.8,9.7 13.7,1.7 		"/>
        <polygon class="st5" points="13.7,1.7 5.8,9.7 6,9.9 14.7,1.2 		"/>
        <polygon class="st6" points="14.7,1.2 6,9.9 6.3,10 15.6,0.7 		"/>
        <polygon class="st7" points="6.3,10 6.6,10.2 16.1,0.6 16,0.5 15.6,0.7 		"/>
        <polygon class="st8" points="16.1,0.6 6.6,10.2 6.8,10.3 16.4,0.8 		"/>
        <polygon class="st8" points="16.4,0.8 6.8,10.3 7.1,10.5 16.7,0.9 		"/>
        <polygon class="st9" points="16.7,0.9 7.1,10.5 7.3,10.7 16.9,1.1 		"/>
        <polygon class="st10" points="16.9,1.1 7.3,10.7 7.6,10.8 17.2,1.2 		"/>
        <polygon class="st11" points="17.2,1.2 7.6,10.8 7.9,11 17.5,1.4 		"/>
        <polygon class="st12" points="17.5,1.4 7.9,11 8.1,11.2 17.7,1.6 		"/>
        <polygon class="st12" points="17.7,1.6 8.1,11.2 8.4,11.3 18,1.7 		"/>
        <polygon class="st13" points="18,1.7 8.4,11.3 8.7,11.5 18.3,1.9 		"/>
        <polygon class="st14" points="18.3,1.9 8.7,11.5 8.9,11.7 18.5,2.1 		"/>
        <polygon class="st15" points="18.5,2.1 8.9,11.7 9.2,11.8 18.8,2.2 		"/>
        <polygon class="st16" points="18.8,2.2 9.2,11.8 9.5,12 19.1,2.4 		"/>
        <polygon class="st17" points="19.1,2.4 9.5,12 9.7,12.1 19.3,2.6 		"/>
        <polygon class="st18" points="19.3,2.6 9.7,12.1 10,12.3 19.6,2.7 		"/>
        <polygon class="st19" points="19.6,2.7 10,12.3 10.3,12.5 19.9,2.9 		"/>
        <polygon class="st20" points="19.9,2.9 10.3,12.5 10.5,12.6 20.1,3 		"/>
        <polygon class="st21" points="20.1,3 10.5,12.6 10.8,12.8 20.4,3.2 		"/>
        <polygon class="st22" points="20.4,3.2 10.8,12.8 11.1,13 20.7,3.4 		"/>
        <polygon class="st23" points="20.7,3.4 11.1,13 11.3,13.1 20.9,3.5 		"/>
        <polygon class="st24" points="20.9,3.5 11.3,13.1 11.6,13.3 21.2,3.7 		"/>
        <polygon class="st25" points="21.2,3.7 11.6,13.3 11.9,13.5 21.5,3.9 		"/>
        <polygon class="st26" points="21.5,3.9 11.9,13.5 12.1,13.6 21.7,4 		"/>
        <polygon class="st27" points="21.7,4 12.1,13.6 12.4,13.8 22,4.2 		"/>
        <polygon class="st28" points="22,4.2 12.4,13.8 12.7,13.9 22.3,4.4 		"/>
        <polygon class="st29" points="22.3,4.4 12.7,13.9 12.9,14.1 22.5,4.5 		"/>
        <polygon class="st30" points="22.5,4.5 12.9,14.1 13.2,14.3 22.8,4.7 		"/>
        <polygon class="st31" points="22.8,4.7 13.2,14.3 13.5,14.4 23.1,4.8 		"/>
        <polygon class="st32" points="23.1,4.8 13.5,14.4 13.7,14.6 23.3,5 		"/>
        <polygon class="st33" points="23.3,5 13.7,14.6 14,14.8 23.6,5.2 		"/>
        <polygon class="st34" points="23.6,5.2 14,14.8 14.3,14.9 23.9,5.3 		"/>
        <polygon class="st35" points="23.9,5.3 14.3,14.9 14.5,15.1 24.1,5.5 		"/>
        <polygon class="st36" points="24.1,5.5 14.5,15.1 14.8,15.3 24.4,5.7 		"/>
        <polygon class="st37" points="24.4,5.7 14.8,15.3 15.1,15.4 24.7,5.8 		"/>
        <polygon class="st38" points="24.7,5.8 15.1,15.4 15.3,15.6 24.9,6 		"/>
        <polygon class="st39" points="24.9,6 15.3,15.6 15.6,15.7 25.2,6.2 		"/>
        <polygon class="st40" points="15.6,15.7 15.9,15.9 25.4,6.3 25.2,6.2 		"/>
        <polygon class="st41" points="25.7,6.5 25.4,6.3 15.9,15.9 16,16 16.4,15.8 		"/>
        <polygon class="st42" points="25.7,6.5 16.4,15.8 17.3,15.3 26,6.6 		"/>
        <polygon class="st43" points="26,6.6 17.3,15.3 18.3,14.8 26.2,6.8 		"/>
        <polygon class="st44" points="26.2,6.8 18.3,14.8 19.2,14.3 26.5,7 		"/>
        <polygon class="st45" points="26.5,7 19.2,14.3 20.1,13.8 26.8,7.1 		"/>
        <polygon class="st46" points="26.8,7.1 20.1,13.8 21.1,13.3 27,7.3 		"/>
        <polygon class="st47" points="27,7.3 21.1,13.3 22,12.8 27.3,7.5 		"/>
        <polygon class="st48" points="22,12.8 22.9,12.3 27.6,7.6 27.3,7.5 		"/>
        <polygon class="st49" points="23.9,11.8 27.8,7.8 27.6,7.6 22.9,12.3 		"/>
        <polygon class="st50" points="24.8,11.3 28.1,7.9 27.8,7.8 23.9,11.8 		"/>
        <polygon class="st51" points="25.7,10.8 28.4,8.1 28.1,7.9 24.8,11.3 		"/>
        <polygon class="st52" points="26.6,10.3 28.6,8.3 28.4,8.1 25.7,10.8 		"/>
        <polygon class="st53" points="27.6,9.8 28.9,8.4 28.6,8.3 26.6,10.3 		"/>
        <polygon class="st54" points="28.5,9.3 29.2,8.6 28.9,8.4 27.6,9.8 		"/>
        <polygon class="st55" points="28.5,9.3 29.4,8.8 29.2,8.6 		"/>
	</g>
        <g>
		<polygon class="st13" points="2.6,7.7 2.6,8.2 2.9,7.9 		"/>
            <polygon class="st14" points="2.9,7.9 2.6,8.2 2.6,8.7 3.2,8.1 		"/>
            <polygon class="st15" points="3.2,8.1 2.6,8.7 2.6,9.2 3.5,8.3 		"/>
            <polygon class="st16" points="3.5,8.3 2.6,9.2 2.6,9.7 3.8,8.5 		"/>
            <polygon class="st17" points="3.8,8.5 2.6,9.7 2.6,10.2 4.1,8.7 		"/>
            <polygon class="st18" points="4.1,8.7 2.6,10.2 2.6,10.7 4.4,8.9 		"/>
            <polygon class="st19" points="4.4,8.9 2.6,10.7 2.6,11.2 4.7,9 		"/>
            <polygon class="st20" points="4.7,9 2.6,11.2 2.6,11.6 5,9.2 		"/>
            <polygon class="st21" points="5,9.2 2.6,11.6 2.6,12.1 5.3,9.4 		"/>
            <polygon class="st22" points="5.3,9.4 2.6,12.1 2.6,12.6 5.6,9.6 		"/>
            <polygon class="st23" points="5.6,9.6 2.6,12.6 2.6,13.1 5.9,9.8 		"/>
            <polygon class="st24" points="5.9,9.8 2.6,13.1 2.6,13.6 6.2,10 		"/>
            <polygon class="st25" points="6.2,10 2.6,13.6 2.6,14.1 6.5,10.2 		"/>
            <polygon class="st26" points="6.5,10.2 2.6,14.1 2.6,14.6 6.8,10.3 		"/>
            <polygon class="st56" points="6.8,10.3 2.6,14.6 2.6,15.1 7.1,10.5 		"/>
            <polygon class="st27" points="7.1,10.5 2.6,15.1 2.6,15.6 7.4,10.7 		"/>
            <polygon class="st28" points="7.4,10.7 2.6,15.6 2.6,16.1 7.7,10.9 		"/>
            <polygon class="st29" points="7.7,10.9 2.6,16.1 2.6,16.5 8,11.1 		"/>
            <polygon class="st30" points="8,11.1 2.6,16.5 2.6,17 8.3,11.3 		"/>
            <polygon class="st57" points="8.3,11.3 2.6,17 2.6,17.5 8.6,11.5 		"/>
            <polygon class="st32" points="8.6,11.5 2.6,17.5 2.6,18 8.9,11.6 		"/>
            <polygon class="st33" points="8.9,11.6 2.6,18 2.6,18.5 9.2,11.8 		"/>
            <polygon class="st34" points="9.2,11.8 2.6,18.5 2.6,19 9.5,12 		"/>
            <polygon class="st35" points="9.5,12 2.6,19 2.6,19.5 9.8,12.2 		"/>
            <polygon class="st36" points="9.8,12.2 2.6,19.5 2.6,20 10.1,12.4 		"/>
            <polygon class="st58" points="10.1,12.4 2.6,20 2.6,20.5 10.4,12.6 		"/>
            <polygon class="st37" points="10.4,12.6 2.6,20.5 2.6,20.9 10.7,12.8 		"/>
            <polygon class="st38" points="10.7,12.8 2.6,20.9 2.6,21.4 11.1,13 		"/>
            <polygon class="st39" points="11.1,13 2.6,21.4 2.6,21.9 11.4,13.1 		"/>
            <polygon class="st59" points="11.4,13.1 2.6,21.9 2.6,22.4 11.7,13.3 		"/>
            <polygon class="st40" points="11.7,13.3 2.6,22.4 2.6,22.9 12,13.5 		"/>
            <polygon class="st41" points="12.3,13.7 12,13.5 2.6,22.9 2.6,23.2 2.7,23.3 		"/>
            <polygon class="st42" points="12.3,13.7 2.7,23.3 3,23.5 12.6,13.9 		"/>
            <polygon class="st60" points="12.6,13.9 3,23.5 3.3,23.7 12.9,14.1 		"/>
            <polygon class="st43" points="12.9,14.1 3.3,23.7 3.6,23.9 13.2,14.3 		"/>
            <polygon class="st44" points="13.2,14.3 3.6,23.9 3.9,24 13.5,14.4 		"/>
            <polygon class="st45" points="13.5,14.4 3.9,24 4.2,24.2 13.8,14.6 		"/>
            <polygon class="st61" points="4.2,24.2 4.5,24.4 14.1,14.8 13.8,14.6 		"/>
            <polygon class="st61" points="4.7,24.6 14.3,15 14.1,14.8 4.5,24.4 		"/>
            <polygon class="st61" points="4.9,24.7 14.5,15.1 14.3,15 4.7,24.6 		"/>
            <polygon class="st61" points="5.1,24.8 14.7,15.2 14.5,15.1 4.9,24.7 		"/>
            <polygon class="st61" points="5.4,25 15,15.4 14.7,15.2 5.1,24.8 		"/>
            <polygon class="st46" points="5.6,25.1 15.2,15.5 15,15.4 5.4,25 		"/>
            <polygon class="st46" points="5.8,25.2 15.4,15.6 15.2,15.5 5.6,25.1 		"/>
            <polygon class="st46" points="6,25.4 15.6,15.8 15.4,15.6 5.8,25.2 		"/>
            <polygon class="st47" points="6.3,25.5 15.9,15.9 15.6,15.8 6,25.4 		"/>
            <polygon class="st47" points="6.3,25.5 6.5,25.6 16,16.1 16,16 15.9,15.9 		"/>
            <polygon class="st47" points="6.7,25.8 16,16.5 16,16.1 6.5,25.6 		"/>
            <polygon class="st62" points="6.9,25.9 16,16.8 16,16.5 6.7,25.8 		"/>
            <polygon class="st62" points="7.1,26 16,17.2 16,16.8 6.9,25.9 		"/>
            <polygon class="st48" points="7.4,26.2 16,17.5 16,17.2 7.1,26 		"/>
            <polygon class="st49" points="7.6,26.3 16,17.9 16,17.5 7.4,26.2 		"/>
            <polygon class="st49" points="7.8,26.5 16,18.3 16,17.9 7.6,26.3 		"/>
            <polygon class="st63" points="8,26.6 16,18.6 16,18.3 7.8,26.5 		"/>
            <polygon class="st50" points="8.2,26.7 16,19 16,18.6 8,26.6 		"/>
            <polygon class="st50" points="8.5,26.9 16,19.3 16,19 8.2,26.7 		"/>
            <polygon class="st51" points="8.7,27 16,19.7 16,19.3 8.5,26.9 		"/>
            <polygon class="st64" points="8.9,27.1 16,20 16,19.7 8.7,27 		"/>
            <polygon class="st52" points="9.1,27.3 16,20.4 16,20 8.9,27.1 		"/>
            <polygon class="st53" points="9.4,27.4 16,20.8 16,20.4 9.1,27.3 		"/>
            <polygon class="st54" points="9.6,27.5 16,21.1 16,20.8 9.4,27.4 		"/>
            <polygon class="st65" points="9.8,27.7 16,21.5 16,21.1 9.6,27.5 		"/>
            <polygon class="st55" points="10,27.8 16,21.8 16,21.5 9.8,27.7 		"/>
            <polygon class="st66" points="10.2,28 16,22.2 16,21.8 10,27.8 		"/>
            <polygon class="st67" points="10.5,28.1 16,22.5 16,22.2 10.2,28 		"/>
            <polygon class="st68" points="10.7,28.2 16,22.9 16,22.5 10.5,28.1 		"/>
            <polygon class="st69" points="10.9,28.4 16,23.3 16,22.9 10.7,28.2 		"/>
            <polygon class="st70" points="11.1,28.5 16,23.6 16,23.3 10.9,28.4 		"/>
            <polygon class="st71" points="11.3,28.6 16,24 16,23.6 11.1,28.5 		"/>
            <polygon class="st72" points="11.6,28.8 16,24.3 16,24 11.3,28.6 		"/>
            <polygon class="st73" points="11.8,28.9 16,24.7 16,24.3 11.6,28.8 		"/>
            <polygon class="st74" points="12,29 16,25.1 16,24.7 11.8,28.9 		"/>
            <polygon class="st75" points="12.2,29.2 16,25.4 16,25.1 12,29 		"/>
            <polygon class="st76" points="12.5,29.3 16,25.8 16,25.4 12.2,29.2 		"/>
            <polygon class="st77" points="12.7,29.5 16,26.1 16,25.8 12.5,29.3 		"/>
            <polygon class="st78" points="12.9,29.6 16,26.5 16,26.1 12.7,29.5 		"/>
            <polygon class="st79" points="13.1,29.7 16,26.8 16,26.5 12.9,29.6 		"/>
            <polygon class="st80" points="13.3,29.9 16,27.2 16,26.8 13.1,29.7 		"/>
            <polygon class="st81" points="13.6,30 16,27.6 16,27.2 13.3,29.9 		"/>
            <polygon class="st82" points="13.8,30.1 16,27.9 16,27.6 13.6,30 		"/>
            <polygon class="st83" points="14,30.3 16,28.3 16,27.9 13.8,30.1 		"/>
            <polygon class="st84" points="14.2,30.4 16,28.6 16,28.3 14,30.3 		"/>
            <polygon class="st85" points="14.4,30.5 16,29 16,28.6 14.2,30.4 		"/>
            <polygon class="st86" points="14.7,30.7 16,29.3 16,29 14.4,30.5 		"/>
            <polygon class="st87" points="14.9,30.8 16,29.7 16,29.3 14.7,30.7 		"/>
            <polygon class="st88" points="15.1,30.9 16,30.1 16,29.7 14.9,30.8 		"/>
            <polygon class="st89" points="15.3,31.1 16,30.4 16,30.1 15.1,30.9 		"/>
            <polygon class="st90" points="15.5,31.2 16,30.8 16,30.4 15.3,31.1 		"/>
            <polygon class="st91" points="15.8,31.4 16,31.1 16,30.8 15.5,31.2 		"/>
            <polygon class="st91" points="16,31.5 16,31.1 15.8,31.4 		"/>
	</g>
        <g>
		<polygon class="st92" points="16,16 16,31.5 29.4,24.3 29.4,8.8 		"/>
	</g>
        <polygon class="st93"
                 points="29.7,9.2 29.2,8.3 16,15.4 2.8,7.3 2.3,8.2 15.5,16.3 15.5,31.5 16.5,31.5 16.5,16.3 	"/>
        <g>
		<path class="st94"
              d="M16,32.1L2.1,23.5V7.4L16-0.1l13.9,8.6v16.1L16,32.1z M3.1,23l12.9,8l12.9-7V9l-13-8L3.1,8V23z"/>
	</g>
</g>
    <rect class="st95" width="32" height="32"/>
</svg>
