<?xml version="1.0" encoding="utf-8"?>
<!-- Generator: Adobe Illustrator 19.2.1, SVG Export Plug-In . SVG Version: 6.00 Build 0)  -->
<svg version="1.1" id="Layer_1" xmlns="http://www.w3.org/2000/svg" x="0px"
     y="0px"
     viewBox="0 0 32 32" style="enable-background:new 0 0 32 32;" xml:space="preserve">
<style type="text/css">
	.st0{fill:#CDE6EB;}
	.st1{fill:#CCE6EB;}
	.st2{fill:#CCE5EB;}
	.st3{fill:#CCE5EA;}
	.st4{fill:#CBE5EA;}
	.st5{fill:#CAE4EA;}
	.st6{fill:#C9E4EA;}
	.st7{fill:#C9E4E9;}
	.st8{fill:#C8E3E9;}
	.st9{fill:#C7E3E9;}
	.st10{fill:#C6E2E8;}
	.st11{fill:#C5E2E8;}
	.st12{fill:#C4E1E8;}
	.st13{fill:#C3E1E7;}
	.st14{fill:#C2E0E7;}
	.st15{fill:#C1E0E7;}
	.st16{fill:#C1DFE6;}
	.st17{fill:#C0DFE6;}
	.st18{fill:#BFDEE6;}
	.st19{fill:#BEDEE5;}
	.st20{fill:#BDDDE5;}
	.st21{fill:#BCDDE4;}
	.st22{fill:#BBDCE4;}
	.st23{fill:#BADCE4;}
	.st24{fill:#B9DBE3;}
	.st25{fill:#B8DBE3;}
	.st26{fill:#B7DAE2;}
	.st27{fill:#B6DAE2;}
	.st28{fill:#B5D9E2;}
	.st29{fill:#B4D8E1;}
	.st30{fill:#B2D8E1;}
	.st31{fill:#B1D7E0;}
	.st32{fill:#B0D6E0;}
	.st33{fill:#AFD6DF;}
	.st34{fill:#AED5DF;}
	.st35{fill:#ADD5DF;}
	.st36{fill:#ABD4DE;}
	.st37{fill:#AAD3DE;}
	.st38{fill:#A9D3DD;}
	.st39{fill:#A8D2DD;}
	.st40{fill:#A6D1DC;}
	.st41{fill:#A5D1DC;}
	.st42{fill:#A4D0DB;}
	.st43{fill:#A3CFDB;}
	.st44{fill:#A1CEDA;}
	.st45{fill:#A0CEDA;}
	.st46{fill:#9FCDD9;}
	.st47{fill:#9DCCD9;}
	.st48{fill:#9CCCD8;}
	.st49{fill:#9BCBD8;}
	.st50{fill:#99CAD7;}
	.st51{fill:#98C9D6;}
	.st52{fill:#96C9D6;}
	.st53{fill:#95C8D5;}
	.st54{fill:#93C7D5;}
	.st55{fill:#92C6D4;}
	.st56{fill:#90C5D4;}
	.st57{fill:#8FC5D3;}
	.st58{fill:#8EC4D3;}
	.st59{fill:#8CC3D2;}
	.st60{fill:#AFD7E1;}
	.st61{fill:#AED6E0;}
	.st62{fill:#ADD6E0;}
	.st63{fill:#ABD5DF;}
	.st64{fill:#AAD4DF;}
	.st65{fill:#A9D3DE;}
	.st66{fill:#A8D3DE;}
	.st67{fill:#A6D2DD;}
	.st68{fill:#A5D1DD;}
	.st69{fill:#A4D1DC;}
	.st70{fill:#A3D0DC;}
	.st71{fill:#A2CFDB;}
	.st72{fill:#A0CEDB;}
	.st73{fill:#9FCEDA;}
	.st74{fill:#9ECDDA;}
	.st75{fill:#9CCCD9;}
	.st76{fill:#99CAD8;}
	.st77{fill:#98CAD8;}
	.st78{fill:#97C9D7;}
	.st79{fill:#96C8D7;}
	.st80{fill:#95C8D6;}
	.st81{fill:#94C7D6;}
	.st82{fill:#93C6D5;}
	.st83{fill:#92C6D5;}
	.st84{fill:#8FC5D4;}
	.st85{fill:#8DC3D3;}
	.st86{fill:#8BC2D2;}
	.st87{fill:#8AC1D2;}
	.st88{fill:#89C1D1;}
	.st89{fill:#88C0D1;}
	.st90{fill:#87C0D0;}
	.st91{fill:#86BFD0;}
	.st92{fill:#85BECF;}
	.st93{fill:#84BECF;}
	.st94{fill:#83BDCF;}
	.st95{fill:#82BDCE;}
	.st96{fill:#81BCCE;}
	.st97{fill:#80BCCD;}
	.st98{fill:#7FBBCD;}
	.st99{fill:#7EBBCD;}
	.st100{fill:#7DBACC;}
	.st101{fill:#7CB9CC;}
	.st102{fill:#7BB8CB;}
	.st103{fill:#7AB8CB;}
	.st104{fill:#79B7CA;}
	.st105{fill:#78B7CA;}
	.st106{fill:#77B7CA;}
	.st107{fill:#77B6CA;}
	.st108{fill:#76B6C9;}
	.st109{fill:#75B5C9;}
	.st110{fill:#74B5C8;}
	.st111{fill:#73B4C8;}
	.st112{fill:#3C91AF;}
	.st113{fill:#147391;}
	.st114{fill:#ffffff;}
	.st115{fill:none;}
</style>

    <g>
	<g>
		<polygon class="st0" points="3.5,7.7 2.6,8.3 2.8,8.4 		"/>
        <polygon class="st0" points="3.5,7.7 2.8,8.4 3.1,8.6 4.4,7.2 		"/>
        <polygon class="st0" points="4.4,7.2 3.1,8.6 3.4,8.7 5.3,6.7 		"/>
        <polygon class="st1" points="5.3,6.7 3.4,8.7 3.6,8.9 6.3,6.2 		"/>
        <polygon class="st2" points="6.3,6.2 3.6,8.9 3.9,9.1 7.2,5.7 		"/>
        <polygon class="st3" points="7.2,5.7 3.9,9.1 4.1,9.2 8.1,5.2 		"/>
        <polygon class="st4" points="8.1,5.2 4.1,9.2 4.4,9.4 9.1,4.7 		"/>
        <polygon class="st4" points="9.1,4.7 4.4,9.4 4.7,9.6 10,4.2 		"/>
        <polygon class="st5" points="10,4.2 4.7,9.6 4.9,9.7 10.9,3.7 		"/>
        <polygon class="st6" points="10.9,3.7 4.9,9.7 5.2,9.9 11.9,3.2 		"/>
        <polygon class="st7" points="11.9,3.2 5.2,9.9 5.5,10 12.8,2.7 		"/>
        <polygon class="st8" points="12.8,2.7 5.5,10 5.7,10.2 13.7,2.2 		"/>
        <polygon class="st8" points="13.7,2.2 5.7,10.2 6,10.4 14.6,1.7 		"/>
        <polygon class="st9" points="14.6,1.7 6,10.4 6.3,10.5 15.6,1.2 		"/>
        <polygon class="st10" points="6.3,10.5 6.5,10.7 16.1,1.1 16,1 15.6,1.2 		"/>
        <polygon class="st11" points="16.1,1.1 6.5,10.7 6.8,10.9 16.4,1.3 		"/>
        <polygon class="st11" points="16.4,1.3 6.8,10.9 7.1,11 16.7,1.4 		"/>
        <polygon class="st12" points="16.7,1.4 7.1,11 7.3,11.2 16.9,1.6 		"/>
        <polygon class="st13" points="16.9,1.6 7.3,11.2 7.6,11.4 17.2,1.8 		"/>
        <polygon class="st14" points="17.2,1.8 7.6,11.4 7.9,11.5 17.5,1.9 		"/>
        <polygon class="st15" points="17.5,1.9 7.9,11.5 8.1,11.7 17.7,2.1 		"/>
        <polygon class="st16" points="17.7,2.1 8.1,11.7 8.4,11.8 18,2.3 		"/>
        <polygon class="st17" points="18,2.3 8.4,11.8 8.7,12 18.3,2.4 		"/>
        <polygon class="st18" points="18.3,2.4 8.7,12 8.9,12.2 18.5,2.6 		"/>
        <polygon class="st19" points="18.5,2.6 8.9,12.2 9.2,12.3 18.8,2.7 		"/>
        <polygon class="st20" points="18.8,2.7 9.2,12.3 9.5,12.5 19.1,2.9 		"/>
        <polygon class="st21" points="19.1,2.9 9.5,12.5 9.7,12.7 19.3,3.1 		"/>
        <polygon class="st22" points="19.3,3.1 9.7,12.7 10,12.8 19.6,3.2 		"/>
        <polygon class="st23" points="19.6,3.2 10,12.8 10.3,13 19.9,3.4 		"/>
        <polygon class="st24" points="19.9,3.4 10.3,13 10.5,13.2 20.1,3.6 		"/>
        <polygon class="st25" points="20.1,3.6 10.5,13.2 10.8,13.3 20.4,3.7 		"/>
        <polygon class="st26" points="20.4,3.7 10.8,13.3 11.1,13.5 20.7,3.9 		"/>
        <polygon class="st27" points="20.7,3.9 11.1,13.5 11.3,13.6 20.9,4.1 		"/>
        <polygon class="st28" points="20.9,4.1 11.3,13.6 11.6,13.8 21.2,4.2 		"/>
        <polygon class="st29" points="21.2,4.2 11.6,13.8 11.9,14 21.4,4.4 		"/>
        <polygon class="st30" points="21.4,4.4 11.9,14 12.1,14.1 21.7,4.5 		"/>
        <polygon class="st31" points="21.7,4.5 12.1,14.1 12.4,14.3 22,4.7 		"/>
        <polygon class="st32" points="22,4.7 12.4,14.3 12.7,14.5 22.2,4.9 		"/>
        <polygon class="st33" points="22.2,4.9 12.7,14.5 12.9,14.6 22.5,5 		"/>
        <polygon class="st34" points="22.5,5 12.9,14.6 13.2,14.8 22.8,5.2 		"/>
        <polygon class="st35" points="22.8,5.2 13.2,14.8 13.4,15 23,5.4 		"/>
        <polygon class="st36" points="23,5.4 13.4,15 13.7,15.1 23.3,5.5 		"/>
        <polygon class="st37" points="23.3,5.5 13.7,15.1 14,15.3 23.6,5.7 		"/>
        <polygon class="st38" points="23.6,5.7 14,15.3 14.2,15.4 23.8,5.8 		"/>
        <polygon class="st39" points="23.8,5.8 14.2,15.4 14.5,15.6 24.1,6 		"/>
        <polygon class="st40" points="24.1,6 14.5,15.6 14.8,15.8 24.4,6.2 		"/>
        <polygon class="st41" points="24.4,6.2 14.8,15.8 15,15.9 24.6,6.3 		"/>
        <polygon class="st42" points="24.6,6.3 15,15.9 15.3,16.1 24.9,6.5 		"/>
        <polygon class="st43" points="24.9,6.5 15.3,16.1 15.6,16.3 25.2,6.7 		"/>
        <polygon class="st44" points="15.6,16.3 15.8,16.4 25.4,6.8 25.2,6.7 		"/>
        <polygon class="st45" points="25.7,7 25.4,6.8 15.8,16.4 16,16.5 16.4,16.3 		"/>
        <polygon class="st46" points="25.7,7 16.4,16.3 17.3,15.8 26,7.2 		"/>
        <polygon class="st47" points="26,7.2 17.3,15.8 18.3,15.3 26.2,7.3 		"/>
        <polygon class="st48" points="26.2,7.3 18.3,15.3 19.2,14.8 26.5,7.5 		"/>
        <polygon class="st49" points="26.5,7.5 19.2,14.8 20.1,14.3 26.8,7.6 		"/>
        <polygon class="st50" points="26.8,7.6 20.1,14.3 21.1,13.8 27,7.8 		"/>
        <polygon class="st51" points="27,7.8 21.1,13.8 22,13.3 27.3,8 		"/>
        <polygon class="st52" points="22,13.3 22.9,12.8 27.6,8.1 27.3,8 		"/>
        <polygon class="st53" points="23.8,12.3 27.8,8.3 27.6,8.1 22.9,12.8 		"/>
        <polygon class="st54" points="24.8,11.8 28.1,8.5 27.8,8.3 23.8,12.3 		"/>
        <polygon class="st55" points="25.7,11.3 28.4,8.6 28.1,8.5 24.8,11.8 		"/>
        <polygon class="st56" points="26.6,10.8 28.6,8.8 28.4,8.6 25.7,11.3 		"/>
        <polygon class="st57" points="27.6,10.3 28.9,9 28.6,8.8 26.6,10.8 		"/>
        <polygon class="st58" points="28.5,9.8 29.2,9.1 28.9,9 27.6,10.3 		"/>
        <polygon class="st59" points="28.5,9.8 29.4,9.3 29.2,9.1 		"/>
	</g>
        <g>
		<polygon class="st60" points="2.6,7.7 2.6,8.4 3,8 		"/>
            <polygon class="st61" points="3,8 2.6,8.4 2.6,9 3.3,8.2 		"/>
            <polygon class="st62" points="3.3,8.2 2.6,9 2.6,9.6 3.7,8.4 		"/>
            <polygon class="st63" points="3.7,8.4 2.6,9.6 2.6,10.2 4.1,8.7 		"/>
            <polygon class="st64" points="4.1,8.7 2.6,10.2 2.6,10.8 4.5,8.9 		"/>
            <polygon class="st65" points="4.5,8.9 2.6,10.8 2.6,11.5 4.9,9.2 		"/>
            <polygon class="st66" points="4.9,9.2 2.6,11.5 2.6,12.1 5.3,9.4 		"/>
            <polygon class="st67" points="5.3,9.4 2.6,12.1 2.6,12.7 5.6,9.6 		"/>
            <polygon class="st68" points="5.6,9.6 2.6,12.7 2.6,13.3 6,9.9 		"/>
            <polygon class="st69" points="6,9.9 2.6,13.3 2.6,13.9 6.4,10.1 		"/>
            <polygon class="st70" points="6.4,10.1 2.6,13.9 2.6,14.6 6.8,10.3 		"/>
            <polygon class="st71" points="6.8,10.3 2.6,14.6 2.6,15.2 7.2,10.6 		"/>
            <polygon class="st72" points="7.2,10.6 2.6,15.2 2.6,15.8 7.6,10.8 		"/>
            <polygon class="st73" points="7.6,10.8 2.6,15.8 2.6,16.4 7.9,11 		"/>
            <polygon class="st74" points="7.9,11 2.6,16.4 2.6,17 8.3,11.3 		"/>
            <polygon class="st47" points="8.3,11.3 2.6,17 2.6,17.7 8.7,11.5 		"/>
            <polygon class="st75" points="8.7,11.5 2.6,17.7 2.6,18.3 9.1,11.7 		"/>
            <polygon class="st49" points="9.1,11.7 2.6,18.3 2.6,18.9 9.5,12 		"/>
            <polygon class="st76" points="9.5,12 2.6,18.9 2.6,19.5 9.9,12.2 		"/>
            <polygon class="st77" points="9.9,12.2 2.6,19.5 2.6,20.1 10.2,12.5 		"/>
            <polygon class="st78" points="10.2,12.5 2.6,20.1 2.6,20.8 10.6,12.7 		"/>
            <polygon class="st79" points="10.6,12.7 2.6,20.8 2.6,21.4 11,12.9 		"/>
            <polygon class="st80" points="11,12.9 2.6,21.4 2.6,22 11.4,13.2 		"/>
            <polygon class="st81" points="11.4,13.2 2.6,22 2.6,22.6 11.8,13.4 		"/>
            <polygon class="st82" points="11.8,13.4 2.6,22.6 2.6,23.2 12.2,13.6 		"/>
            <polygon class="st83" points="12.5,13.9 12.2,13.6 2.6,23.2 3,23.5 		"/>
            <polygon class="st56" points="12.5,13.9 3,23.5 3.3,23.7 12.9,14.1 		"/>
            <polygon class="st84" points="12.9,14.1 3.3,23.7 3.7,23.9 13.3,14.3 		"/>
            <polygon class="st58" points="13.3,14.3 3.7,23.9 4.1,24.2 13.7,14.6 		"/>
            <polygon class="st85" points="4.1,24.2 4.5,24.4 14.1,14.8 13.7,14.6 		"/>
            <polygon class="st59" points="4.9,24.7 14.5,15.1 14.1,14.8 4.5,24.4 		"/>
            <polygon class="st86" points="5.3,24.9 14.8,15.3 14.5,15.1 4.9,24.7 		"/>
            <polygon class="st87" points="5.6,25.1 15.2,15.5 14.8,15.3 5.3,24.9 		"/>
            <polygon class="st88" points="6,25.4 15.6,15.8 15.2,15.5 5.6,25.1 		"/>
            <polygon class="st89" points="6,25.4 6.4,25.6 16,16 15.6,15.8 		"/>
            <polygon class="st90" points="6.8,25.8 16,16.6 16,16 6.4,25.6 		"/>
            <polygon class="st91" points="7.2,26.1 16,17.2 16,16.6 6.8,25.8 		"/>
            <polygon class="st92" points="7.6,26.3 16,17.9 16,17.2 7.2,26.1 		"/>
            <polygon class="st93" points="7.9,26.5 16,18.5 16,17.9 7.6,26.3 		"/>
            <polygon class="st94" points="8.3,26.8 16,19.1 16,18.5 7.9,26.5 		"/>
            <polygon class="st95" points="8.7,27 16,19.7 16,19.1 8.3,26.8 		"/>
            <polygon class="st96" points="9.1,27.2 16,20.3 16,19.7 8.7,27 		"/>
            <polygon class="st97" points="9.5,27.5 16,21 16,20.3 9.1,27.2 		"/>
            <polygon class="st98" points="9.9,27.7 16,21.6 16,21 9.5,27.5 		"/>
            <polygon class="st99" points="10.2,28 16,22.2 16,21.6 9.9,27.7 		"/>
            <polygon class="st100" points="10.6,28.2 16,22.8 16,22.2 10.2,28 		"/>
            <polygon class="st101" points="11,28.4 16,23.4 16,22.8 10.6,28.2 		"/>
            <polygon class="st101" points="11.4,28.7 16,24.1 16,23.4 11,28.4 		"/>
            <polygon class="st102" points="11.8,28.9 16,24.7 16,24.1 11.4,28.7 		"/>
            <polygon class="st103" points="12.2,29.1 16,25.3 16,24.7 11.8,28.9 		"/>
            <polygon class="st104" points="12.5,29.4 16,25.9 16,25.3 12.2,29.1 		"/>
            <polygon class="st105" points="12.9,29.6 16,26.5 16,25.9 12.5,29.4 		"/>
            <polygon class="st106" points="13.3,29.8 16,27.2 16,26.5 12.9,29.6 		"/>
            <polygon class="st107" points="13.7,30.1 16,27.8 16,27.2 13.3,29.8 		"/>
            <polygon class="st108" points="14.1,30.3 16,28.4 16,27.8 13.7,30.1 		"/>
            <polygon class="st109" points="14.5,30.6 16,29 16,28.4 14.1,30.3 		"/>
            <polygon class="st109" points="14.8,30.8 16,29.6 16,29 14.5,30.6 		"/>
            <polygon class="st110" points="15.2,31 16,30.3 16,29.6 14.8,30.8 		"/>
            <polygon class="st111" points="15.6,31.3 16,30.9 16,30.3 15.2,31 		"/>
            <polygon class="st111" points="16,31.5 16,30.9 15.6,31.3 		"/>
	</g>
        <g>
		<polygon class="st112" points="16,16 16,31.5 29.4,24.3 29.4,8.8 		"/>
	</g>
        <polygon class="st113"
                 points="29.7,9.2 29.2,8.3 16,15.4 2.8,7.3 2.3,8.2 15.5,16.3 15.5,31.5 16.5,31.5 16.5,16.3 	"/>
        <g>
		<path class="st114"
              d="M16,32.1L2.1,23.5V7.4L16-0.1l13.9,8.6v16.1L16,32.1z M3.1,23l12.9,8l12.9-7V9l-13-8L3.1,8V23z"/>
	</g>
</g>
    <g>
	<rect class="st115" width="32" height="32"/>
</g>
</svg>
