<?xml version="1.0" encoding="utf-8"?>
<!-- Generator: Adobe Illustrator 20.0.0, SVG Export Plug-In . SVG Version: 6.00 Build 0)  -->
<svg version="1.1" id="Layer_1" xmlns="http://www.w3.org/2000/svg" x="0px"
	 y="0px"
	 viewBox="0 0 32 32" style="enable-background:new 0 0 32 32;" xml:space="preserve">
<title>JT2GO_Icons_32px_Art_cmdPartMenu32</title>
    <style type="text/css">
	.st0{fill:#ffffff;}
	.st1{fill:none;}
</style>

    <g>
	<g>
		<g>
			<path class="st0" d="M32,32H0V0h16v4h16V32z M1,31h30V5H15V1H1V31z"/>
		</g>
        <g>
			<g>
				<rect x="15" y="17.6" class="st0" width="1" height="9.2"/>
			</g>
            <g>
				<polygon class="st0"
                         points="15.5,18.3 7.3,13.5 7.7,12.7 15.5,17.1 23.3,12.7 23.7,13.5 				"/>
			</g>
            <g>
				<path class="st0"
                      d="M15.5,27.4L7,22.5v-9.7l8.5-4.9l8.5,4.9v9.7L15.5,27.4z M8,22l7.5,4.3L23,22v-8.6l-7.5-4.3L8,13.4V22z"/>
			</g>
		</g>
	</g>
        <g>
		<rect x="0" y="0" class="st1" width="32" height="32"/>
	</g>
</g>
</svg>
