<?xml version="1.0" encoding="utf-8"?>
<!-- Generator: Adobe Illustrator 20.0.0, SVG Export Plug-In . SVG Version: 6.00 Build 0)  -->
<svg version="1.1" id="Layer_1" xmlns="http://www.w3.org/2000/svg" x="0px"
	 y="0px"
	 viewBox="0 0 32 32" style="enable-background:new 0 0 32 32;" xml:space="preserve">
<title>JT2GO_Icons_32px_Art_cmdPMI32</title>
    <style type="text/css">
	.st0{fill:#464646;}
	.st1{fill:none;}
</style>

    <g>
	<g>
		<g>
			<g>
				<path class="st0" d="M1.5,17C0.7,17,0,16.3,0,15.5S0.7,14,1.5,14S3,14.7,3,15.5S2.3,17,1.5,17z M1.5,15C1.2,15,1,15.2,1,15.5
					S1.2,16,1.5,16S2,15.8,2,15.5S1.8,15,1.5,15z"/>
			</g>
            <g>
				<rect x="2" y="15" class="st0" width="9" height="1"/>
			</g>
            <g>
				<path class="st0" d="M32,20H11v-9h21V20z M12,19h19v-7H12V19z"/>
			</g>
		</g>
        <g>
			<g>
				<path class="st0" d="M1.5,28C0.7,28,0,27.3,0,26.5S0.7,25,1.5,25S3,25.7,3,26.5S2.3,28,1.5,28z M1.5,26C1.2,26,1,26.2,1,26.5
					S1.2,27,1.5,27S2,26.8,2,26.5S1.8,26,1.5,26z"/>
			</g>
            <g>
				<rect x="2" y="26" class="st0" width="9" height="1"/>
			</g>
            <g>
				<path class="st0" d="M32,31H11v-9h21V31z M12,30h19v-7H12V30z"/>
			</g>
		</g>
        <g>
			<g>
				<path class="st0" d="M1.5,6C0.7,6,0,5.3,0,4.5S0.7,3,1.5,3S3,3.7,3,4.5S2.3,6,1.5,6z M1.5,4C1.2,4,1,4.2,1,4.5S1.2,5,1.5,5
					S2,4.8,2,4.5S1.8,4,1.5,4z"/>
			</g>
            <g>
				<rect x="2" y="4" class="st0" width="9" height="1"/>
			</g>
            <g>
				<path class="st0" d="M32,9H11V0h21V9z M12,8h19V1H12V8z"/>
			</g>
		</g>
	</g>
        <g>
		<rect x="0" y="0" class="st1" width="32" height="32"/>
	</g>
</g>
</svg>
