<?xml version="1.0" encoding="utf-8"?>
<!-- Generator: Adobe Illustrator 20.0.0, SVG Export Plug-In . SVG Version: 6.00 Build 0)  -->
<svg version="1.1" id="Layer_1" xmlns="http://www.w3.org/2000/svg" x="0px"
	 y="0px"
	 viewBox="0 0 32 32" style="enable-background:new 0 0 32 32;" xml:space="preserve">
<title>JT2GO_Icons_32px_Art_cmdRestoreSettings32</title>
    <style type="text/css">
	.st0{fill:none;}
	.st1{fill:#ffffff;}
</style>

    <g>
	<g>
		<rect x="0" class="st0" width="32" height="32"/>
	</g>
        <g>
		<g>
			<path class="st1" d="M18.3,32h-4.6l-2-5.5c0,0,0-0.1-0.1-0.1l-5.4,2.5l-3.2-3.2l2.5-5.3c0-0.1,0-0.2-0.1-0.2l-5.5-2v-4.6l5.5-2
				c0,0,0.1,0,0.1-0.1L3.1,6.3L6.3,3l5.3,2.5c0,0,0.1,0,0.1,0l2-5.5h4.6l2,5.5c0.1,0.1,0.1,0.1,0.2,0.1L25.7,3l3.2,3.2l-2.5,5.3
				c0,0.1,0,0.1,0.1,0.2l5.5,2v4.6l-5.5,2c0,0-0.1,0-0.1,0.1l2.5,5.4l-3.2,3.2l-5.3-2.5c-0.1,0-0.1,0-0.2,0.1L18.3,32z M14.4,31h3.2
				l1.7-4.9c0.1-0.3,0.3-0.6,0.6-0.7c0.3-0.1,0.6-0.1,0.9,0l4.6,2.2l2.2-2.2l-2.2-4.6c-0.1-0.3-0.1-0.6,0-0.9
				c0.1-0.3,0.4-0.5,0.7-0.6l4.8-1.7v-3.2l-4.8-1.7c-0.3-0.1-0.5-0.3-0.7-0.6c-0.1-0.3-0.1-0.6,0-0.9l2.2-4.6l-2.2-2.2l-4.6,2.2
				c-0.3,0.1-0.6,0.1-0.9,0c-0.3-0.1-0.5-0.4-0.6-0.6L17.6,1h-3.2l-1.7,4.8c-0.1,0.3-0.3,0.5-0.6,0.6c-0.3,0.1-0.6,0.1-0.9,0
				L6.5,4.2L4.3,6.5l2.2,4.6c0.1,0.3,0.1,0.6,0,0.9c-0.1,0.3-0.4,0.5-0.7,0.6L1,14.4v3.2l4.8,1.7c0.3,0.1,0.5,0.3,0.7,0.6
				c0.1,0.3,0.1,0.6,0,0.9l-2.2,4.6l2.2,2.2l4.6-2.2c0.3-0.1,0.6-0.1,0.9,0c0.3,0.1,0.5,0.4,0.6,0.7L14.4,31z M26.3,19.7L26.3,19.7
				L26.3,19.7z"/>
		</g>
            <g>
			<path class="st1" d="M16,23c-3.9,0-7-3.1-7-7h1c0,3.3,2.7,6,6,6s6-2.7,6-6s-2.7-6-6-6c-1.9,0-3.7,0.9-4.9,2.5l-0.8-0.6
				C11.6,10.1,13.8,9,16,9c3.9,0,7,3.1,7,7S19.9,23,16,23z"/>
		</g>
            <g>
			<polygon class="st1" points="15,13 10,13 10,8 11,8 11,12 15,12 			"/>
		</g>
	</g>
</g>
</svg>
