<?xml version="1.0" encoding="utf-8"?>
<!-- Generator: Adobe Illustrator 20.0.0, SVG Export Plug-In . SVG Version: 6.00 Build 0)  -->
<svg version="1.1" id="Layer_1" xmlns="http://www.w3.org/2000/svg" x="0px"
	 y="0px"
	 viewBox="0 0 32 32" style="enable-background:new 0 0 32 32;" xml:space="preserve">
<title>JT2GO_Icons_32px_Art_cmdShow32</title>
    <style type="text/css">
	.st0{fill:#ffffff;}
	.st1{fill:none;}
</style>

    <g>
	<g>
		<g>
			<path class="st0" d="M15.5,22C11.9,22,9,19.1,9,15.5C9,11.9,11.9,9,15.5,9s6.5,2.9,6.5,6.5C22,19.1,19.1,22,15.5,22z M15.5,10
				c-3,0-5.5,2.5-5.5,5.5c0,3,2.5,5.5,5.5,5.5s5.5-2.5,5.5-5.5C21,12.5,18.5,10,15.5,10z"/>
		</g>
        <g>
			<path class="st0" d="M15.5,26c-6.2,0-11.9-3.7-15.2-9.8c-0.2-0.4-0.2-1,0-1.4C3.6,8.7,9.3,5,15.5,5s11.9,3.7,15.2,9.8
				c0.2,0.4,0.2,1,0,1.4l0,0C27.4,22.3,21.7,26,15.5,26z M15.5,6C9.6,6,4.3,9.5,1.2,15.3c-0.1,0.1-0.1,0.3,0,0.5
				C4.3,21.5,9.6,25,15.5,25s11.2-3.5,14.3-9.3c0,0,0,0,0,0c0.1-0.1,0.1-0.3,0-0.5C26.7,9.5,21.4,6,15.5,6z"/>
		</g>
	</g>
        <g>
		<rect class="st1" width="32" height="32"/>
	</g>
</g>
</svg>
