<?xml version="1.0" encoding="utf-8"?>
<!-- Generator: Adobe Illustrator 20.0.0, SVG Export Plug-In . SVG Version: 6.00 Build 0)  -->
<svg version="1.1" id="Layer_1" xmlns="http://www.w3.org/2000/svg" x="0px"
	 y="0px"
	 viewBox="0 0 32 32" style="enable-background:new 0 0 32 32;" xml:space="preserve">
<title>JT2GO_Icons_32px_Art_cmdShowAllParts32</title>
    <style type="text/css">
	.st0{fill:#ffffff;}
	.st1{fill:none;}
</style>

    <g>
	<g>
		<g>
			<g>
				<rect x="8" y="16" class="st0" width="1" height="9.3"/>
			</g>
            <g>
				<polygon class="st0" points="8.5,16.6 0.3,11.9 0.7,11 8.5,15.4 16.3,11 16.7,11.9 				"/>
			</g>
            <g>
				<path class="st0"
                      d="M8.5,25.8L0,20.9v-9.7l8.5-4.9l8.5,4.9v9.7L8.5,25.8z M1,20.3l7.5,4.3l7.5-4.3v-8.6L8.5,7.4L1,11.7V20.3z"
                />
			</g>
		</g>
        <g id="Production_3_">
			<g>
				<g>
					<polygon class="st0"
                             points="23,30.8 19.2,26.2 20,25.5 23,29.2 29.9,20.7 30.7,21.3 					"/>
				</g>
			</g>
		</g>
        <g id="Production_7_">
			<g>
				<g>
					<polygon class="st0"
                             points="23,20.8 19.2,16.2 20,15.5 23,19.2 29.9,10.7 30.7,11.3 					"/>
				</g>
			</g>
		</g>
        <g id="Production_8_">
			<g>
				<g>
					<polygon class="st0"
                             points="23,10.8 19.2,6.2 20,5.5 23,9.2 29.9,0.7 30.7,1.3 					"/>
				</g>
			</g>
		</g>
	</g>
        <g id="XMLID_34_">
		<rect y="0" transform="matrix(-1 -1.224647e-16 1.224647e-16 -1 32 32)" class="st1" width="32" height="32"/>
	</g>
</g>
</svg>
