<?xml version="1.0" encoding="utf-8"?>
<!-- Generator: Adobe Illustrator 20.0.0, SVG Export Plug-In . SVG Version: 6.00 Build 0)  -->
<svg version="1.1" id="Layer_1" xmlns="http://www.w3.org/2000/svg" x="0px"
	 y="0px"
	 viewBox="0 0 32 32" style="enable-background:new 0 0 32 32;" xml:space="preserve">
<title>JT2GO_Icons_32px_Art_cmdShowAllPMI32</title>
    <style type="text/css">
	.st0{fill:#ffffff;}
	.st1{fill:none;}
</style>

    <g>
	<g>
		<g>
			<g>
				<path class="st0" d="M1.5,17C0.7,17,0,16.3,0,15.5S0.7,14,1.5,14S3,14.7,3,15.5S2.3,17,1.5,17z M1.5,15C1.2,15,1,15.2,1,15.5
					S1.2,16,1.5,16S2,15.8,2,15.5S1.8,15,1.5,15z"/>
			</g>
            <g>
				<rect x="2" y="15" class="st0" width="9" height="1"/>
			</g>
            <g>
				<polygon class="st0"
                         points="32,20 30,20 30,19 31,19 31,12 12,12 12,19 14,19 14,20 11,20 11,11 32,11 				"/>
			</g>
		</g>
        <g>
			<g>
				<path class="st0" d="M1.5,6C0.7,6,0,5.3,0,4.5S0.7,3,1.5,3S3,3.7,3,4.5S2.3,6,1.5,6z M1.5,4C1.2,4,1,4.2,1,4.5S1.2,5,1.5,5
					S2,4.8,2,4.5S1.8,4,1.5,4z"/>
			</g>
            <g>
				<rect x="2" y="4" class="st0" width="9" height="1"/>
			</g>
            <g>
				<path class="st0" d="M32,9H11V0h21V9z M12,8h19V1H12V8z"/>
			</g>
		</g>
        <g>
			<path class="st0" d="M22,28c-2.2,0-4-1.8-4-4s1.8-4,4-4s4,1.8,4,4S24.2,28,22,28z M22,21c-1.7,0-3,1.3-3,3s1.3,3,3,3s3-1.3,3-3
				S23.7,21,22,21z"/>
		</g>
        <g>
			<path class="st0" d="M22,31c-4,0-7.7-2.4-9.9-6.5c-0.2-0.3-0.2-0.7,0-1.1c2.1-4,5.8-6.5,9.9-6.5s7.7,2.4,9.9,6.5
				c0.2,0.3,0.2,0.7,0,1.1l0,0C29.7,28.6,26,31,22,31z M22,18c-3.7,0-7,2.2-9,5.9c0,0,0,0.1,0,0.2c2,3.7,5.3,5.9,9,5.9s7-2.2,9-5.9
				l0,0c0,0,0-0.1,0-0.2C29,20.2,25.7,18,22,18z"/>
		</g>
	</g>
        <g>
		<rect class="st1" width="32" height="32"/>
	</g>
</g>
</svg>
