<?xml version="1.0" encoding="utf-8"?>
<!-- Generator: Adobe Illustrator 20.0.0, SVG Export Plug-In . SVG Version: 6.00 Build 0)  -->
<svg version="1.1" id="Layer_1" xmlns="http://www.w3.org/2000/svg" x="0px"
	 y="0px"
	 viewBox="0 0 32 32" style="enable-background:new 0 0 32 32;" xml:space="preserve">
<title>JT2GO_Icons_32px_Art_cmdSpin32</title>
    <style type="text/css">
	.st0{fill:#ffffff;}
	.st1{fill:none;}
</style>

    <g>
	<g>
		<g>
			<path class="st0" d="M18,27l-1.8,0c-9-0.2-16.1-3.7-16.2-7.9c0-2.6,2.5-4.8,6.9-6.1l0.3,1C3.3,15.1,1,17,1,19.1
				c0,3.5,7,6.7,15.2,6.9l1.8,0V27z"/>
		</g>
        <g>
			<path class="st0" d="M25.1,25.8l-0.3-1c3.9-1.2,6.2-3.1,6.2-5.1c0-1.9-1.9-3.7-5.2-5l0.4-0.9c3.7,1.5,5.8,3.6,5.8,5.9
				C32,22.3,29.5,24.5,25.1,25.8z"/>
		</g>
        <g>
			<polygon class="st0" points="15.4,30.4 14.6,29.6 17.8,26.5 14.6,23.4 15.4,22.6 19.2,26.5 			"/>
		</g>
        <g>
			<g>
				<rect x="16" y="11.2" class="st0" width="1" height="9.3"/>
			</g>
            <g>
				<polygon class="st0" points="16.5,11.8 8.3,7 8.7,6.2 16.5,10.6 24.3,6.2 24.7,7 				"/>
			</g>
            <g>
				<path class="st0"
                      d="M16.5,20.9L8,16V6.3l8.5-4.9L25,6.3V16L16.5,20.9z M9,15.5l7.5,4.3l7.5-4.3V6.9l-7.5-4.3L9,6.9V15.5z"/>
			</g>
		</g>
	</g>
        <g>
		<rect class="st1" width="32" height="32"/>
	</g>
</g>
</svg>
