<?xml version="1.0" encoding="utf-8"?>
<!-- Generator: Adobe Illustrator 20.0.0, SVG Export Plug-In . SVG Version: 6.00 Build 0)  -->
<svg version="1.1" id="Layer_1" xmlns="http://www.w3.org/2000/svg" x="0px"
	 y="0px"
	 viewBox="0 0 32 32" style="enable-background:new 0 0 32 32;" xml:space="preserve">
<title>JT2GO_Icons_32px_Art_cmdStructure32</title>
    <style type="text/css">
	.st0{fill:#ffffff;}
	.st1{fill:none;}
</style>

    <g>
	<g>
		<path class="st0" d="M6,5H2V1h4V5z M3,4h2V2H3V4z"/>
	</g>
        <g>
		<path class="st0" d="M10,11H6V7h4V11z M7,10h2V8H7V10z"/>
	</g>
        <g>
		<path class="st0" d="M10,17H6v-4h4V17z M7,16h2v-2H7V16z"/>
	</g>
        <g>
		<path class="st0" d="M6,23H2v-4h4V23z M3,22h2v-2H3V22z"/>
	</g>
        <g>
		<path class="st0" d="M10,29H6v-4h4V29z M7,28h2v-2H7V28z"/>
	</g>
        <g>
		<rect x="9" y="3" class="st0" width="21" height="1"/>
	</g>
        <g>
		<rect x="13" y="9" class="st0" width="17" height="1"/>
	</g>
        <g>
		<rect x="13" y="15" class="st0" width="17" height="1"/>
	</g>
        <g>
		<rect x="9" y="21" class="st0" width="21" height="1"/>
	</g>
        <g>
		<rect x="13" y="27" class="st0" width="17" height="1"/>
	</g>
</g>
    <g>
	<rect class="st1" width="32" height="32"/>
</g>
</svg>
