<?xml version="1.0" encoding="utf-8"?>
<!-- Generator: Adobe Illustrator 20.0.0, SVG Export Plug-In . SVG Version: 6.00 Build 0)  -->
<svg version="1.1" id="Layer_1" xmlns="http://www.w3.org/2000/svg" x="0px"
	 y="0px"
	 viewBox="0 0 32 32" style="enable-background:new 0 0 32 32;" xml:space="preserve">
<title>JT2GO_Icons_32px_Art_cmdTakePicture32</title>
    <style type="text/css">
	.st0{fill:#ffffff;}
	.st1{fill:none;}
</style>

    <g>
	<g>
		<path class="st0" d="M29.5,29h-27C1.1,29,0,27.9,0,26.5v-19C0,6.1,1.1,5,2.5,5h27C30.9,5,32,6.1,32,7.5v19
			C32,27.9,30.9,29,29.5,29z M2.5,6C1.7,6,1,6.7,1,7.5v19C1,27.3,1.7,28,2.5,28h27c0.8,0,1.5-0.7,1.5-1.5v-19C31,6.7,30.3,6,29.5,6
			H2.5z"/>
	</g>
        <g>
		<path class="st0" d="M11.5,24C7.4,24,4,20.6,4,16.5S7.4,9,11.5,9s7.5,3.4,7.5,7.5S15.6,24,11.5,24z M11.5,10C7.9,10,5,12.9,5,16.5
			S7.9,23,11.5,23s6.5-2.9,6.5-6.5S15.1,10,11.5,10z"/>
	</g>
        <g>
		<path class="st0" d="M27.5,12h-3c-0.8,0-1.5-0.7-1.5-1.5v-1C23,8.7,23.7,8,24.5,8h3C28.3,8,29,8.7,29,9.5v1
			C29,11.3,28.3,12,27.5,12z M24.5,9C24.2,9,24,9.2,24,9.5v1c0,0.3,0.2,0.5,0.5,0.5h3c0.3,0,0.5-0.2,0.5-0.5v-1
			C28,9.2,27.8,9,27.5,9H24.5z"/>
	</g>
        <g>
		<polygon class="st0" points="10,5.5 9,5.5 9,3 5,3 5,5.5 4,5.5 4,2 10,2 		"/>
	</g>
</g>
    <g>
	<rect class="st1" width="32" height="32"/>
</g>
</svg>
