<?xml version="1.0" encoding="utf-8"?>
<!-- Generator: Adobe Illustrator 20.0.0, SVG Export Plug-In . SVG Version: 6.00 Build 0)  -->
<svg version="1.1" id="Layer_1" xmlns="http://www.w3.org/2000/svg" x="0px"
	 y="0px"
	 viewBox="0 0 32 32" style="enable-background:new 0 0 32 32;" xml:space="preserve">
<title>JT2GO_Icons_32px_Art_cmdViewMenu32</title>
    <style type="text/css">
	.st0{fill:#ffffff;}
	.st1{fill:none;}
</style>

    <g>
	<g>
		<g>
			<path class="st0" d="M19.5,24h-13C6.2,24,6,23.8,6,23.5v-11C6,12.2,6.2,12,6.5,12h13c0.3,0,0.5,0.2,0.5,0.5v11
				C20,23.8,19.8,24,19.5,24z M7,23h12V13H7V23z"/>
		</g>
        <g>
			<path class="st0" d="M26.5,24.5c-0.1,0-0.3-0.1-0.4-0.1l-6-6C20.1,18.3,20,18.1,20,18c0-0.1,0.1-0.3,0.1-0.4l6-6
				c0.1-0.1,0.4-0.2,0.5-0.1c0.2,0.1,0.3,0.3,0.3,0.5v12c0,0.2-0.1,0.4-0.3,0.5C26.6,24.5,26.6,24.5,26.5,24.5z M21.2,18l4.8,4.8
				v-9.6L21.2,18z"/>
		</g>
        <g>
			<path class="st0" d="M32,32H0V0h16v4h16V32z M1,31h30V5H15V1H1V31z"/>
		</g>
	</g>
        <g>
		<rect class="st1" width="32" height="32"/>
	</g>
</g>
</svg>
